<?xml version="1.0" encoding="utf-8"?>
<!-- Generator: Adobe Illustrator 27.5.0, SVG Export Plug-In . SVG Version: 6.00 Build 0)  -->
<svg version="1.1" xmlns="http://www.w3.org/2000/svg" xmlns:xlink="http://www.w3.org/1999/xlink" x="0px" y="0px"
	 viewBox="0 0 500 500" style="enable-background:new 0 0 500 500;" xml:space="preserve">
<g id="BACKGROUND">
</g>
<g id="OBJECTS">
	<g>
		<g>
			<polygon style="fill:#2A2768;" points="117.601,147.307 121.002,148.417 123.843,146.244 123.839,149.821 126.784,151.852 
				123.381,152.954 122.359,156.382 120.259,153.486 116.683,153.573 118.789,150.682 			"/>
			<polygon style="fill:#2A2768;" points="155.002,133.289 158.403,134.398 161.244,132.225 161.24,135.803 164.185,137.834 
				160.782,138.936 159.76,142.364 157.66,139.467 154.084,139.555 156.19,136.663 			"/>
			<path style="fill:#2A2768;" d="M168.359,97.998c1.048,1.024,1.068,2.703,0.044,3.751c-1.024,1.048-2.703,1.068-3.751,0.044
				c-1.048-1.024-1.068-2.703-0.044-3.751C165.631,96.994,167.311,96.975,168.359,97.998z"/>
			<path style="fill:#2A2768;" d="M146.911,81.991c1.048,1.024,1.067,2.703,0.044,3.751c-1.024,1.048-2.703,1.068-3.751,0.044
				c-1.048-1.024-1.068-2.703-0.044-3.751C144.184,80.986,145.863,80.967,146.911,81.991z"/>
			<path style="fill:#2A2768;" d="M95.014,189.524c1.048,1.024,1.068,2.703,0.044,3.751c-1.024,1.048-2.703,1.068-3.751,0.044
				c-1.048-1.024-1.068-2.703-0.044-3.751C92.287,188.52,93.966,188.5,95.014,189.524z"/>
			<polyline style="fill:none;stroke:#2A2768;stroke-miterlimit:10;" points="92.535,191.429 123.315,149.799 160.065,137.49 
				144.432,83.895 			"/>
			<line style="fill:none;stroke:#2A2768;stroke-miterlimit:10;" x1="160.065" y1="137.49" x2="167.777" y2="101.757"/>
		</g>
		<g>
			<polygon style="fill:#2A2768;" points="368.567,305.523 369.238,309.264 372.699,310.832 369.349,312.626 368.927,316.403 
				366.186,313.771 362.464,314.536 364.12,311.116 362.241,307.813 366.006,308.331 			"/>
			<polygon style="fill:#2A2768;" points="397.881,281.887 398.775,286.87 403.386,288.96 398.923,291.349 398.361,296.381 
				394.709,292.874 389.749,293.895 391.956,289.338 389.453,284.936 394.469,285.627 			"/>
			<polygon style="fill:#2A2768;" points="404.875,233.964 405.656,238.321 409.688,240.148 405.785,242.237 405.294,246.636 
				402.101,243.57 397.765,244.462 399.694,240.478 397.506,236.631 401.891,237.234 			"/>
			<path style="fill:#2A2768;" d="M422.157,191.044c-0.432,1.495-1.994,2.358-3.489,1.926c-1.495-0.432-2.357-1.994-1.926-3.489
				c0.432-1.495,1.994-2.358,3.489-1.926C421.727,187.986,422.589,189.548,422.157,191.044z"/>
			<path style="fill:#2A2768;" d="M386.487,257.01c-0.432,1.495-1.994,2.357-3.489,1.926c-1.495-0.432-2.357-1.994-1.926-3.489
				c0.432-1.495,1.994-2.357,3.489-1.926C386.056,253.952,386.919,255.515,386.487,257.01z"/>
			<polyline style="fill:none;stroke:#2A2768;stroke-miterlimit:10;" points="366.98,311.022 395.817,289.037 381.974,255.707 
				402.529,242.087 404.088,192.67 417.905,188.838 			"/>
		</g>
	</g>
	<g>
		
			<ellipse transform="matrix(0.7071 -0.7071 0.7071 0.7071 -97.7667 247.6031)" style="fill:none;stroke:#2A2768;stroke-miterlimit:10;" cx="250" cy="241.816" rx="197.64" ry="197.64"/>
		<g>
			<line style="fill:none;stroke:#2A2768;stroke-miterlimit:10;" x1="203.865" y1="432.863" x2="196.811" y2="418.181"/>
			<line style="fill:none;stroke:#2A2768;stroke-miterlimit:10;" x1="184.009" y1="429.081" x2="159.858" y2="430.498"/>
			<path style="fill:none;stroke:#2A2768;stroke-miterlimit:10;" d="M168.158,421.17c0,0-12.129-6.266-27.733-34.942"/>
			<path style="fill:none;stroke:#2A2768;stroke-miterlimit:10;" d="M147.134,410.171c0,0-16.39,9.13-44.385-21.104"/>
			<path style="fill:none;stroke:#2A2768;stroke-miterlimit:10;" d="M125.91,394.794c0,0-0.765-15.805-17.562-41.56"/>
			<path style="fill:#2A2768;" d="M110.487,395.161c0,0-8.003,3.189-12.608-9.321c0,0-0.592-4.459-6.35-8.109
				s-6.682-4.141-9.987-12.409c0,0,5.267,4.574,9.236,4.905c3.968,0.331,8.745,5.829,9.121,9.581
				C100.275,383.56,111.159,385.711,110.487,395.161z"/>
			<path style="fill:#2A2768;" d="M203.449,428.57c0,0-12.722,1.339-14.271-18.396c0,0,0.947-6.611-5.814-14.145
				c-6.762-7.534-7.884-8.607-9.283-21.754c0,0,5.689,8.657,11.228,10.727c5.539,2.07,10.155,11.85,9.183,17.363
				S208.211,415.331,203.449,428.57z"/>
			<path style="fill:none;stroke:#2A2768;stroke-miterlimit:10;" d="M121.005,373.962c0,0-12.624,2.068-15.305-17.544
				c0,0,0.565-6.655-6.618-13.787c-7.184-7.132-8.367-8.139-10.519-21.184c0,0,6.178,8.315,11.826,10.063
				c5.649,1.748,10.82,11.246,10.166,16.806C109.901,353.876,124.998,360.471,121.005,373.962z"/>
			<path style="fill:none;stroke:#2A2768;stroke-miterlimit:10;" d="M176.979,428.887c0,0-3.056,8.347-15.842,3.278
				c0,0-3.835-2.613-10.604-0.698c-6.769,1.915-7.781,2.287-16.412-0.861c0,0,7.141-0.902,10.127-3.725
				c2.986-2.823,10.499-2.712,13.642-0.419C161.032,428.755,170.176,421.867,176.979,428.887z"/>
			<circle style="fill:#2A2768;" cx="141.382" cy="388.507" r="3.919"/>
			<path style="fill:none;stroke:#2A2768;stroke-miterlimit:10;" d="M212.605,435.851c0,0-9.539,9.766-41.525,16.301"/>
			<path style="fill:#2A2768;" d="M174.685,448.155c2.07,0.633,3.235,2.824,2.602,4.894s-2.824,3.235-4.894,2.602
				c-2.07-0.633-3.235-2.824-2.602-4.894C170.424,448.687,172.615,447.522,174.685,448.155z"/>
		</g>
		<g>
			<line style="fill:none;stroke:#2A2768;stroke-miterlimit:10;" x1="340.518" y1="417.339" x2="345.298" y2="401.767"/>
			<line style="fill:none;stroke:#2A2768;stroke-miterlimit:10;" x1="350.842" y1="412.044" x2="374.504" y2="407.005"/>
			<path style="fill:none;stroke:#2A2768;stroke-miterlimit:10;" d="M372.301,397.373c0,0,11.056-8.009,22.196-38.697"/>
			<path style="fill:none;stroke:#2A2768;stroke-miterlimit:10;" d="M386.499,385.297c0,0,17.571,6.576,40.729-27.505"/>
			<path style="fill:none;stroke:#2A2768;stroke-miterlimit:10;" d="M406.304,363.56c0,0-1.607-15.742,11.148-43.719"/>
			<path style="fill:#2A2768;" d="M420.489,364.976c0,0,8.39,1.956,11.072-11.102c0,0-0.081-4.497,5.066-8.967
				c5.147-4.47,5.987-5.094,8.019-13.763c0,0-4.524,5.31-8.398,6.231c-3.874,0.921-7.775,7.071-7.585,10.837
				C428.852,351.978,418.412,355.732,420.489,364.976z"/>
			<path style="fill:#2A2768;" d="M340.288,413.031c0,0,12.779-0.579,11.359-20.323c0,0-1.926-6.395,3.633-14.856
				s6.509-9.689,5.925-22.898c0,0-4.33,9.41-9.497,12.285c-5.167,2.875-8.269,13.235-6.482,18.541
				C347.011,391.088,333.599,400.654,340.288,413.031z"/>
			<path style="fill:none;stroke:#2A2768;stroke-miterlimit:10;" d="M408.039,342.228c0,0,12.791,0.157,12.509-19.636
				c0,0-1.555-6.496,4.482-14.622c6.036-8.127,7.055-9.299,7.232-22.519c0,0-4.865,9.145-10.188,11.719
				c-5.324,2.573-9.016,12.737-7.538,18.138C416.014,320.708,402.073,329.487,408.039,342.228z"/>
			<path style="fill:none;stroke:#2A2768;stroke-miterlimit:10;" d="M357.549,409.387c0,0,4.27,7.796,16.154,0.872
				c0,0,3.401-3.157,10.38-2.276c6.979,0.881,8.036,1.098,16.099-3.306c0,0-7.196,0.176-10.57-2.168
				c-3.374-2.344-10.787-1.111-13.551,1.626S363.226,401.428,357.549,409.387z"/>
			<path style="fill:#2A2768;" d="M390.016,361.659c0.324,2.14,2.321,3.613,4.461,3.289s3.613-2.321,3.289-4.461
				c-0.324-2.14-2.321-3.613-4.461-3.289C391.165,357.521,389.692,359.519,390.016,361.659z"/>
			<path style="fill:none;stroke:#2A2768;stroke-miterlimit:10;" d="M332.323,421.6c0,0,10.893,8.23,43.496,9.907"/>
			<path style="fill:#2A2768;" d="M371.658,428.095c-1.952,0.936-2.776,3.276-1.84,5.228c0.935,1.952,3.276,2.776,5.228,1.84
				c1.952-0.936,2.776-3.276,1.84-5.228C375.95,427.983,373.609,427.159,371.658,428.095z"/>
		</g>
	</g>
	<path style="fill:#FFFFFF;" d="M239.922,410.902c0,1.237-1.003,2.24-2.24,2.24c-1.237,0-2.24-1.003-2.24-2.24
		c0-1.237,1.003-2.24,2.24-2.24C238.919,408.663,239.922,409.665,239.922,410.902z"/>
	<g>
		<g>
			<g>
				<path style="fill:#2A2768;" d="M177.775,184.708c-0.309,0-0.56-0.25-0.56-0.56v-7.839c0-0.309,0.25-0.56,0.56-0.56
					c0.309,0,0.56,0.25,0.56,0.56v7.839C178.334,184.458,178.084,184.708,177.775,184.708z"/>
			</g>
			<g>
				<path style="fill:#2A2768;" d="M177.775,197.025c-0.309,0-0.56-0.25-0.56-0.56v-7.839c0-0.309,0.25-0.56,0.56-0.56
					c0.309,0,0.56,0.25,0.56,0.56v7.839C178.334,196.775,178.084,197.025,177.775,197.025z"/>
			</g>
			<g>
				<path style="fill:#2A2768;" d="M187.853,186.948h-7.838c-0.309,0-0.56-0.25-0.56-0.56c0-0.309,0.25-0.56,0.56-0.56h7.838
					c0.309,0,0.56,0.25,0.56,0.56C188.412,186.697,188.162,186.948,187.853,186.948z"/>
			</g>
			<g>
				<path style="fill:#2A2768;" d="M175.535,186.948h-7.838c-0.31,0-0.56-0.25-0.56-0.56c0-0.309,0.25-0.56,0.56-0.56h7.838
					c0.309,0,0.56,0.25,0.56,0.56C176.095,186.697,175.845,186.948,175.535,186.948z"/>
			</g>
			<g>
				<path style="fill:#2A2768;" d="M183.134,192.821c-0.154,0-0.307-0.063-0.418-0.187l-4.257-4.773
					c-0.206-0.231-0.186-0.585,0.045-0.791c0.232-0.207,0.584-0.186,0.791,0.045l4.257,4.773c0.206,0.231,0.186,0.585-0.045,0.791
					C183.4,192.774,183.266,192.821,183.134,192.821z"/>
			</g>
			<g>
				<path style="fill:#2A2768;" d="M176.444,185.319c-0.154,0-0.307-0.063-0.418-0.187l-4.257-4.773
					c-0.206-0.231-0.186-0.585,0.045-0.791c0.232-0.207,0.585-0.185,0.791,0.045l4.257,4.773c0.206,0.231,0.186,0.585-0.045,0.791
					C176.71,185.272,176.576,185.319,176.444,185.319z"/>
			</g>
			<g>
				<path style="fill:#2A2768;" d="M171.523,192.156c-0.154,0-0.307-0.063-0.418-0.187c-0.206-0.231-0.186-0.585,0.045-0.791
					l4.773-4.256c0.231-0.207,0.584-0.186,0.791,0.045c0.206,0.231,0.186,0.585-0.045,0.791l-4.773,4.256
					C171.789,192.109,171.655,192.156,171.523,192.156z"/>
			</g>
			<g>
				<path style="fill:#2A2768;" d="M179.025,185.467c-0.154,0-0.307-0.063-0.418-0.187c-0.206-0.231-0.186-0.585,0.045-0.791
					l4.773-4.257c0.232-0.207,0.585-0.186,0.791,0.045c0.206,0.231,0.186,0.585-0.045,0.791l-4.773,4.257
					C179.29,185.42,179.157,185.467,179.025,185.467z"/>
			</g>
		</g>
		<g>
			<g>
				<path style="fill:#2A2768;" d="M402.849,153.354c-0.31,0-0.56-0.25-0.56-0.56v-7.838c0-0.309,0.25-0.56,0.56-0.56
					c0.309,0,0.56,0.25,0.56,0.56v7.838C403.409,153.104,403.158,153.354,402.849,153.354z"/>
			</g>
			<g>
				<path style="fill:#2A2768;" d="M402.849,165.672c-0.31,0-0.56-0.25-0.56-0.56v-7.838c0-0.31,0.25-0.56,0.56-0.56
					c0.309,0,0.56,0.25,0.56,0.56v7.838C403.409,165.421,403.158,165.672,402.849,165.672z"/>
			</g>
			<g>
				<path style="fill:#2A2768;" d="M412.927,155.594h-7.838c-0.309,0-0.56-0.25-0.56-0.56c0-0.31,0.25-0.56,0.56-0.56h7.838
					c0.31,0,0.56,0.25,0.56,0.56C413.487,155.344,413.236,155.594,412.927,155.594z"/>
			</g>
			<g>
				<path style="fill:#2A2768;" d="M400.609,155.594h-7.838c-0.309,0-0.56-0.25-0.56-0.56c0-0.31,0.25-0.56,0.56-0.56h7.838
					c0.31,0,0.56,0.25,0.56,0.56C401.169,155.344,400.919,155.594,400.609,155.594z"/>
			</g>
			<g>
				<path style="fill:#2A2768;" d="M408.208,161.467c-0.154,0-0.307-0.063-0.418-0.187l-4.257-4.773
					c-0.205-0.231-0.186-0.585,0.045-0.791c0.232-0.207,0.584-0.186,0.791,0.045l4.257,4.773c0.206,0.231,0.186,0.585-0.045,0.791
					C408.474,161.42,408.341,161.467,408.208,161.467z"/>
			</g>
			<g>
				<path style="fill:#2A2768;" d="M401.518,153.966c-0.154,0-0.307-0.063-0.418-0.187l-4.257-4.773
					c-0.206-0.231-0.186-0.585,0.045-0.791c0.232-0.207,0.585-0.185,0.791,0.045l4.257,4.773c0.206,0.231,0.186,0.585-0.045,0.791
					C401.784,153.919,401.65,153.966,401.518,153.966z"/>
			</g>
			<g>
				<path style="fill:#2A2768;" d="M396.597,160.802c-0.154,0-0.307-0.063-0.418-0.187c-0.206-0.231-0.186-0.585,0.045-0.791
					l4.773-4.256c0.231-0.207,0.584-0.186,0.791,0.045c0.205,0.231,0.186,0.585-0.045,0.791l-4.773,4.256
					C396.863,160.755,396.73,160.802,396.597,160.802z"/>
			</g>
			<g>
				<path style="fill:#2A2768;" d="M404.099,154.113c-0.154,0-0.307-0.063-0.418-0.187c-0.206-0.231-0.186-0.585,0.045-0.791
					l4.773-4.257c0.232-0.207,0.585-0.186,0.791,0.045c0.206,0.231,0.186,0.585-0.045,0.791l-4.773,4.257
					C404.365,154.066,404.231,154.113,404.099,154.113z"/>
			</g>
		</g>
		<g>
			<g>
				<path style="fill:#2A2768;" d="M145.301,342.596c-0.309,0-0.56-0.25-0.56-0.56v-7.838c0-0.309,0.25-0.56,0.56-0.56
					c0.31,0,0.56,0.25,0.56,0.56v7.838C145.861,342.346,145.611,342.596,145.301,342.596z"/>
			</g>
			<g>
				<path style="fill:#2A2768;" d="M145.301,354.914c-0.309,0-0.56-0.25-0.56-0.56v-7.838c0-0.31,0.25-0.56,0.56-0.56
					c0.31,0,0.56,0.25,0.56,0.56v7.838C145.861,354.663,145.611,354.914,145.301,354.914z"/>
			</g>
			<g>
				<path style="fill:#2A2768;" d="M155.379,344.836h-7.838c-0.31,0-0.56-0.25-0.56-0.56c0-0.31,0.25-0.56,0.56-0.56h7.838
					c0.309,0,0.56,0.25,0.56,0.56C155.939,344.585,155.689,344.836,155.379,344.836z"/>
			</g>
			<g>
				<path style="fill:#2A2768;" d="M143.062,344.836h-7.838c-0.31,0-0.56-0.25-0.56-0.56c0-0.31,0.25-0.56,0.56-0.56h7.838
					c0.31,0,0.56,0.25,0.56,0.56C143.622,344.585,143.371,344.836,143.062,344.836z"/>
			</g>
			<g>
				<path style="fill:#2A2768;" d="M150.661,350.709c-0.154,0-0.307-0.063-0.418-0.187l-4.257-4.773
					c-0.206-0.231-0.186-0.585,0.045-0.791c0.232-0.207,0.584-0.186,0.791,0.045l4.257,4.773c0.205,0.231,0.186,0.585-0.045,0.791
					C150.926,350.662,150.793,350.709,150.661,350.709z"/>
			</g>
			<g>
				<path style="fill:#2A2768;" d="M143.97,343.207c-0.154,0-0.307-0.063-0.418-0.187l-4.257-4.773
					c-0.206-0.231-0.186-0.585,0.045-0.791c0.232-0.207,0.585-0.185,0.791,0.045l4.257,4.773c0.206,0.231,0.186,0.585-0.045,0.791
					C144.236,343.16,144.103,343.207,143.97,343.207z"/>
			</g>
			<g>
				<path style="fill:#2A2768;" d="M139.049,350.044c-0.154,0-0.307-0.063-0.418-0.187c-0.206-0.231-0.186-0.585,0.045-0.791
					l4.773-4.256c0.231-0.207,0.584-0.186,0.791,0.045c0.206,0.231,0.186,0.585-0.045,0.791l-4.773,4.256
					C139.315,349.997,139.182,350.044,139.049,350.044z"/>
			</g>
			<g>
				<path style="fill:#2A2768;" d="M146.551,343.355c-0.154,0-0.307-0.063-0.418-0.187c-0.206-0.231-0.186-0.585,0.045-0.791
					l4.773-4.257c0.232-0.207,0.585-0.186,0.791,0.045c0.206,0.231,0.186,0.585-0.045,0.791l-4.773,4.257
					C146.817,343.308,146.684,343.355,146.551,343.355z"/>
			</g>
		</g>
	</g>
	<g>
		<path style="fill:#2A2768;" d="M377.12,139.601c-0.223-0.146-0.456-0.284-0.706-0.404c-9.933-4.766-18.489,11.504-22.087,18.003
			c-0.326,0.589-0.647,1.184-0.965,1.783c-0.638,1.804-1.273,3.743-1.9,5.842c0,0-0.001-0.001-0.001-0.001
			c-0.012,0.041-0.024,0.085-0.036,0.126c-0.28,0.941-0.559,1.906-0.836,2.909l-8.467,17.094c-0.244,0.014-0.387,0.028-0.387,0.028
			l-14.221,33.239c0,0-6.664,5.477-10.654-11.605l8.353-40.678c0.042-0.009,0.071-0.015,0.071-0.015l5.349-38.096l5.15-20.64
			c0.016-2.465-0.057-4.93-0.246-7.395c-0.412-5.363-3.154-8.481-6.688-10.867c-2.331-0.763-5.506-1.224-9.859-0.982
			c0,0-5.834,2.601-8.764,14.477l-2.875,15.162c-0.001,0-0.001,0-0.001,0l-0.11,0.585c0,0,0,0,0,0l-0.204,1.084l-8.398,34.184l0,0
			l-0.209,0.853c0.016,0.018,0.032,0.034,0.047,0.052l-7.138,39.628c-0.039,0.224-0.079,0.447-0.121,0.67l-0.203,1.129l-0.02-0.018
			c-0.149,0.708-0.307,1.415-0.488,2.118c-0.687,2.677-4.892,4.325-6.248,1.33l1.996-114.472c0.27-1.713,0.507-3.431,0.571-5.164
			c0.004-0.15,0.01-0.3,0.015-0.452c-0.007-0.162-0.014-0.339-0.022-0.449c-0.041-0.539-0.094-1.077-0.18-1.611
			c-0.225-0.502-0.455-0.977-0.689-1.435c-0.049-0.096-0.099-0.186-0.149-0.28c-0.013-0.026-0.026-0.056-0.04-0.081
			c-0.001,0.002-0.001,0.004-0.002,0.006c-0.008-0.015-0.016-0.029-0.024-0.044c-0.163-0.307-0.327-0.61-0.495-0.897
			c-0.092-0.158-0.185-0.308-0.278-0.46c-0.151-0.247-0.303-0.488-0.456-0.72c-0.098-0.147-0.196-0.291-0.295-0.432
			c-0.07-0.099-0.138-0.208-0.208-0.304c0,0.007,0,0.014,0.001,0.021c-0.963-1.326-1.967-2.384-2.99-3.197
			c-2.262-1.989-5.769-3.566-10.772-2.03c-2.523,0.704-4.222,1.878-4.222,1.878c-1.922,0.892-3.512,5.096-4.776,10.24
			c-0.794,5.664-1.817,11.35-2.951,17.013c-0.469,3.741-0.705,6.332-0.705,6.332c-1.346,3.437-4.594,41.172-4.594,41.172
			c0.026,0.051,0.055,0.095,0.082,0.146c-0.001-0.001-0.002-0.002-0.003-0.002c0.007,0.013,0.014,0.023,0.02,0.036
			c-0.416,0.379-1.533,23.523-1.533,23.523c0.398,6.749,0.959,14.048-0.374,20.53c-0.009,0.042-0.02,0.086-0.029,0.128
			c0.378,0.523-3.494,8.583-7.846,7.941c-4.148-0.613-5.709-4.613-5.651-8.455l-0.357-5.555c-1.86-7.588-2.668-15.382-3.258-23.206
			c-0.738-9.787-1.973-19.5-2.802-29.265c-1.236-14.57,0.831-35.079-9.618-46.968c-2.129-0.788-4.901-0.847-8.328,0.975
			c-0.685,0.318-1.314,0.71-1.896,1.161c-0.247,0.171-0.494,0.341-0.748,0.531c0,0-0.005,0.041-0.012,0.11
			c-8.069,7.567-5.489,28.029-5.489,28.029c-0.921,2.763-1.154,29.054-1.199,35.895c0,0,0,0-0.001,0
			c-0.001,0.229-0.002,0.427-0.003,0.611c-0.004,0.647-0.006,1.02-0.006,1.02l1.018,43.062c0,0-1.128,16.018-4.474,31.421
			c-0.595,5.817-1.461,11.621-2.669,17.408c-2.077,6.045-4.963,10.878-8.936,11.549c-11.527,1.947-21.256-28.607-21.256-28.607
			c0.008,0.157,0.022,0.312,0.031,0.469c-0.006-0.016-0.012-0.03-0.018-0.047c-0.049-0.122-0.104-0.258-0.157-0.392
			c-0.051-0.126-0.095-0.238-0.151-0.374c-0.017-0.042-0.039-0.094-0.057-0.137c-0.059-0.145-0.123-0.299-0.188-0.455
			c-0.057-0.138-0.107-0.262-0.168-0.408c-0.026-0.062-0.057-0.133-0.083-0.196c-0.072-0.172-0.149-0.352-0.226-0.534
			c-0.032-0.075-0.061-0.145-0.094-0.221c-0.028-0.065-0.051-0.121-0.079-0.187c-0.036-0.083-0.077-0.176-0.113-0.261
			c-0.085-0.196-0.173-0.398-0.263-0.604c-0.018-0.04-0.034-0.077-0.051-0.117c-0.043-0.098-0.081-0.187-0.125-0.286
			c-0.047-0.105-0.099-0.221-0.147-0.329c-0.096-0.217-0.195-0.437-0.297-0.662c-0.06-0.133-0.114-0.256-0.175-0.391
			c-0.06-0.131-0.126-0.272-0.187-0.405c-0.107-0.233-0.215-0.468-0.327-0.708c-0.005-0.01-0.009-0.019-0.013-0.029
			c-0.053-0.115-0.102-0.222-0.156-0.338c-0.074-0.157-0.155-0.324-0.23-0.483c-0.119-0.251-0.238-0.502-0.362-0.759
			c-0.054-0.111-0.102-0.216-0.157-0.328c-0.088-0.182-0.184-0.372-0.275-0.557c-0.13-0.266-0.26-0.53-0.396-0.801
			c-0.048-0.097-0.092-0.189-0.141-0.286c-0.107-0.213-0.222-0.434-0.332-0.65c-0.138-0.271-0.274-0.539-0.417-0.814
			c-0.015-0.03-0.03-0.059-0.045-0.089c-0.027-0.052-0.051-0.101-0.078-0.153c-0.127-0.244-0.263-0.494-0.394-0.741
			c-0.146-0.276-0.29-0.549-0.441-0.828c-0.018-0.033-0.034-0.065-0.052-0.098c-0.016-0.029-0.03-0.058-0.046-0.087
			c-0.151-0.278-0.311-0.562-0.466-0.842c-0.15-0.272-0.298-0.542-0.452-0.816c-0.025-0.045-0.049-0.089-0.074-0.134
			c-0.182-0.321-0.372-0.645-0.559-0.968c-0.149-0.257-0.294-0.513-0.446-0.772c-0.015-0.025-0.029-0.051-0.044-0.076
			c-0.228-0.386-0.466-0.772-0.701-1.159c-0.132-0.217-0.259-0.434-0.394-0.65c-0.003-0.005-0.005-0.009-0.008-0.014
			c-0.34-0.548-0.689-1.095-1.044-1.641c-0.039-0.061-0.077-0.122-0.116-0.183c-0.007-0.011-0.014-0.022-0.021-0.033
			c-0.092-0.141-0.189-0.28-0.283-0.421c-0.288-0.435-0.577-0.87-0.874-1.302c-0.011-0.016-0.022-0.033-0.033-0.049
			c-0.021-0.031-0.043-0.061-0.064-0.092c-0.156-0.226-0.319-0.447-0.478-0.672c-0.212-0.299-0.421-0.6-0.637-0.896
			c-0.029-0.04-0.056-0.08-0.085-0.119c-0.035-0.048-0.071-0.094-0.106-0.142c-0.185-0.251-0.375-0.496-0.563-0.744
			c-0.2-0.264-0.396-0.531-0.599-0.792c-0.015-0.019-0.029-0.039-0.044-0.057c-0.05-0.064-0.101-0.125-0.151-0.189
			c-0.204-0.259-0.413-0.51-0.62-0.764c-0.16-0.197-0.318-0.398-0.48-0.593c-0.037-0.045-0.073-0.092-0.11-0.136
			c-0.065-0.078-0.133-0.152-0.199-0.229c-0.216-0.255-0.437-0.502-0.657-0.752c-0.157-0.179-0.312-0.363-0.471-0.539
			c-0.027-0.03-0.053-0.062-0.081-0.092c-0.083-0.092-0.169-0.178-0.253-0.268c-0.227-0.246-0.457-0.484-0.687-0.724
			c-0.149-0.155-0.295-0.316-0.445-0.469c-0.023-0.023-0.045-0.048-0.068-0.071c-0.101-0.102-0.205-0.197-0.307-0.297
			c-0.237-0.234-0.477-0.461-0.717-0.688c-0.146-0.138-0.289-0.284-0.437-0.419c-0.012-0.011-0.023-0.023-0.035-0.034
			c-0.121-0.11-0.245-0.211-0.366-0.319c-0.246-0.219-0.494-0.431-0.743-0.641c-0.111-0.094-0.22-0.194-0.331-0.286
			c-0.034-0.028-0.066-0.059-0.1-0.087c-0.14-0.115-0.285-0.217-0.426-0.329c-0.254-0.2-0.509-0.395-0.766-0.586
			c-0.091-0.067-0.179-0.141-0.27-0.207c-0.04-0.029-0.079-0.062-0.119-0.091c-0.161-0.116-0.326-0.217-0.489-0.328
			c-0.261-0.18-0.524-0.355-0.788-0.524c-0.066-0.042-0.131-0.089-0.197-0.131c-0.049-0.031-0.097-0.067-0.147-0.097
			c-0.183-0.113-0.37-0.207-0.554-0.314c-0.269-0.156-0.538-0.31-0.809-0.454c-0.027-0.014-0.053-0.031-0.08-0.045
			c-0.072-0.038-0.143-0.084-0.216-0.121c-0.204-0.104-0.413-0.188-0.619-0.286c-0.275-0.13-0.55-0.26-0.829-0.377
			c-0.083-0.035-0.164-0.079-0.248-0.113c-0.228-0.092-0.46-0.16-0.689-0.243c-0.28-0.101-0.559-0.205-0.842-0.292
			c-0.067-0.021-0.133-0.049-0.2-0.069c-0.252-0.074-0.51-0.121-0.764-0.184c-0.283-0.069-0.564-0.146-0.849-0.2
			c-0.047-0.009-0.093-0.025-0.141-0.033c0.001,0,0.001,0.001,0.001,0.002c-0.016-0.003-0.032-0.009-0.048-0.012
			c0.007,0.007,0.015,0.014,0.022,0.02c-1.143-0.206-2.302-0.307-3.483-0.253c0,0-12.569-0.509-12.167,10.847
			c-0.006,0.014-0.013,0.026-0.02,0.04c0,0-0.928,3.284,4.116,12.786c-0.001,0.001-0.003,0.003-0.004,0.004
			c0.059,0.112,0.127,0.232,0.188,0.345c0.105,0.195,0.211,0.391,0.321,0.59c0.319,0.582,0.652,1.178,1.017,1.807
			c0,0,0.017-0.007,0.044-0.019c0.012-0.005,0.021-0.009,0.04-0.017c0.023-0.01,0.049-0.021,0.082-0.036
			c5.067,12.304,12.025,29.668,13.886,36.639c0,0,0.232-0.145,0.65-0.41c0.012,1.047,0.079,1.681,0.079,1.681
			c1.445,3.23,2.659,7.384,3.645,11.569c0.185,0.308,0.343,0.646,0.436,1.046c2.272,9.765,5.563,19.211,9.772,28.308
			c2.141,4.626,4.59,9.085,7.018,13.556c-0.015,0.037-0.034,0.063-0.047,0.104c0,0,26.669,53.719,41.099,58.992
			c10.135,8.642,12.678,34.933,12.678,34.933l2.147,36.853c10.641,1.772,21.564,2.71,32.708,2.71
			c28.239,0,55.088-5.935,79.386-16.606c-0.165-21.769-0.271-47.789,0.045-58.575c0.586-20.073,14.4-30.82,17.222-84.189
			c0,0,0.003-0.019,0.009-0.053c0.002-0.01,0.003-0.02,0.006-0.033c0.008-0.045,0.019-0.112,0.033-0.197
			c0.004-0.025,0.008-0.047,0.013-0.076c0.01-0.059,0.021-0.129,0.033-0.202c0.003-0.018,0.006-0.035,0.009-0.053
			c0.012-0.073,0.025-0.152,0.039-0.238c0.005-0.033,0.011-0.065,0.017-0.101c0.017-0.105,0.036-0.217,0.056-0.339
			c0.004-0.026,0.009-0.055,0.013-0.081c0.016-0.095,0.031-0.186,0.048-0.29c0.019-0.114,0.038-0.236,0.059-0.362
			c0.011-0.071,0.023-0.139,0.035-0.213c0.239-1.477,0.582-3.634,0.993-6.325c0,0-0.001,0-0.001,0
			c0.014-0.095,0.029-0.191,0.044-0.287c1.285-8.436,3.203-21.9,4.668-35.96l10.856-33.18l8.259-22.849
			c0.004-0.008,0.01-0.021,0.014-0.029c0.017-0.036,0.038-0.079,0.058-0.12c0.032-0.065,0.061-0.127,0.098-0.205
			c0.022-0.046,0.043-0.09,0.066-0.139c0.025-0.053,0.051-0.107,0.078-0.164c0.036-0.076,0.071-0.151,0.11-0.234
			c0.037-0.078,0.074-0.158,0.113-0.242c0.028-0.06,0.054-0.117,0.084-0.18c0.036-0.077,0.073-0.158,0.111-0.24
			c0.056-0.121,0.113-0.246,0.173-0.377c0-0.001,0.001-0.002,0.001-0.002c1.023-2.737,2.027-5.48,2.956-8.251
			c0.436-1.636,0.845-3.28,1.213-4.939c1.416-6.379,4.239-13.551,2.453-20.087C378.911,142.359,378.111,140.916,377.12,139.601z"/>
		<g>
			<path style="fill:#FFFFFF;" d="M156.393,254.247c-0.007,0.556-0.463,1.001-1.019,0.995c-0.556-0.007-1.001-0.463-0.995-1.019
				c0.007-0.556,0.463-1.002,1.019-0.995C155.954,253.235,156.399,253.691,156.393,254.247z"/>
			<path style="fill:#FFFFFF;" d="M233.145,111.663c-0.007,0.556-0.463,1.002-1.019,0.995c-0.556-0.007-1.002-0.463-0.995-1.019
				c0.007-0.556,0.463-1.001,1.019-0.995C232.707,110.651,233.152,111.107,233.145,111.663z"/>
			<path style="fill:#FFFFFF;" d="M279.438,197.827c-0.007,0.556-0.463,1.001-1.019,0.995s-1.001-0.463-0.995-1.019
				c0.007-0.556,0.463-1.002,1.019-0.995C278.999,196.814,279.444,197.27,279.438,197.827z"/>
			<path style="fill:#FFFFFF;" d="M317.328,168.453c-0.007,0.556-0.463,1.002-1.019,0.995c-0.556-0.007-1.002-0.463-0.995-1.019
				c0.007-0.556,0.463-1.001,1.019-0.995C316.89,167.441,317.335,167.897,317.328,168.453z"/>
			<path style="fill:#FFFFFF;" d="M355.869,206.807c-0.007,0.556-0.463,1.001-1.019,0.995c-0.556-0.007-1.001-0.463-0.995-1.019
				c0.007-0.556,0.463-1.001,1.019-0.995C355.43,205.795,355.875,206.251,355.869,206.807z"/>
			<path style="fill:#FFFFFF;" d="M224.526,241.475c-0.007,0.556-0.463,1.001-1.019,0.995c-0.556-0.007-1.001-0.463-0.995-1.019
				c0.007-0.556,0.463-1.001,1.019-0.995C224.088,240.463,224.533,240.919,224.526,241.475z"/>
			<path style="fill:#FFFFFF;" d="M321.653,287.969c-0.007,0.556-0.463,1.001-1.019,0.995c-0.556-0.007-1.001-0.463-0.995-1.019
				c0.007-0.556,0.463-1.001,1.019-0.995C321.214,286.957,321.66,287.413,321.653,287.969z"/>
			<path style="fill:#FFFFFF;" d="M335.941,300.492c-0.007,0.556-0.463,1.001-1.019,0.995c-0.556-0.007-1.001-0.463-0.995-1.019
				c0.007-0.556,0.463-1.001,1.019-0.995C335.502,299.48,335.948,299.936,335.941,300.492z"/>
			<path style="fill:#FFFFFF;" d="M310.077,329.12c-0.007,0.556-0.463,1.002-1.019,0.995c-0.556-0.007-1.001-0.463-0.995-1.019
				c0.007-0.556,0.463-1.001,1.019-0.995C309.639,328.108,310.084,328.564,310.077,329.12z"/>
			<path style="fill:#FFFFFF;" d="M266.511,350.75c-0.007,0.556-0.463,1.001-1.019,0.995c-0.556-0.007-1.001-0.463-0.995-1.019
				c0.007-0.556,0.463-1.002,1.019-0.995C266.072,349.737,266.517,350.194,266.511,350.75z"/>
			<path style="fill:#FFFFFF;" d="M196.085,344.863c-0.007,0.556-0.463,1.001-1.019,0.995c-0.556-0.007-1.001-0.463-0.995-1.019
				c0.007-0.556,0.463-1.001,1.019-0.995C195.646,343.85,196.091,344.307,196.085,344.863z"/>
			<path style="fill:#FFFFFF;" d="M227.693,365.853c-0.007,0.556-0.463,1.001-1.019,0.995c-0.556-0.007-1.001-0.463-0.995-1.019
				c0.007-0.556,0.463-1.001,1.019-0.995C227.255,364.841,227.7,365.297,227.693,365.853z"/>
			<path style="fill:#FFFFFF;" d="M166.777,269.983c-0.007,0.556-0.463,1.001-1.019,0.995c-0.556-0.007-1.001-0.463-0.995-1.019
				c0.007-0.556,0.463-1.001,1.019-0.995C166.338,268.97,166.784,269.427,166.777,269.983z"/>
			<path style="opacity:0.35;fill:#FFFFFF;" d="M157.629,276.922c-0.007,0.556-0.463,1.002-1.019,0.995
				c-0.556-0.007-1.001-0.463-0.995-1.019c0.007-0.556,0.463-1.001,1.019-0.995C157.191,275.91,157.636,276.366,157.629,276.922z"/>
			<path style="opacity:0.35;fill:#FFFFFF;" d="M235.754,316.495c-0.007,0.556-0.463,1.001-1.019,0.995
				c-0.556-0.007-1.001-0.463-0.995-1.019c0.007-0.556,0.463-1.001,1.019-0.995C235.316,315.483,235.761,315.939,235.754,316.495z"
				/>
			<path style="opacity:0.35;fill:#FFFFFF;" d="M328.399,336.022c-0.007,0.556-0.463,1.001-1.019,0.995
				c-0.556-0.007-1.001-0.463-0.995-1.019c0.007-0.556,0.463-1.001,1.019-0.995C327.96,335.009,328.405,335.466,328.399,336.022z"/>
			<path style="opacity:0.35;fill:#FFFFFF;" d="M307.589,368.367c-0.007,0.556-0.463,1.001-1.019,0.995
				c-0.556-0.007-1.002-0.463-0.995-1.019c0.007-0.556,0.463-1.001,1.019-0.995C307.15,367.354,307.595,367.811,307.589,368.367z"/>
			<path style="opacity:0.35;fill:#FFFFFF;" d="M317.037,419.843c-0.007,0.556-0.463,1.001-1.019,0.995
				c-0.556-0.007-1.001-0.463-0.995-1.019c0.007-0.556,0.463-1.001,1.019-0.995C316.599,418.831,317.044,419.287,317.037,419.843z"
				/>
			<path style="opacity:0.35;fill:#FFFFFF;" d="M323.521,300.077c-0.007,0.556-0.463,1.001-1.019,0.995
				c-0.556-0.007-1.002-0.463-0.995-1.019c0.007-0.556,0.463-1.001,1.019-0.995C323.082,299.064,323.528,299.521,323.521,300.077z"
				/>
			<path style="opacity:0.35;fill:#FFFFFF;" d="M227.316,260.644c-0.007,0.556-0.463,1.001-1.019,0.995
				c-0.556-0.007-1.002-0.463-0.995-1.019c0.007-0.556,0.463-1.001,1.019-0.995C226.877,259.631,227.323,260.088,227.316,260.644z"
				/>
			<path style="opacity:0.35;fill:#FFFFFF;" d="M239.132,282.943c-0.007,0.556-0.463,1.001-1.019,0.995
				c-0.556-0.007-1.001-0.463-0.995-1.019c0.007-0.556,0.463-1.001,1.019-0.995C238.693,281.931,239.138,282.387,239.132,282.943z"
				/>
			<path style="opacity:0.35;fill:#FFFFFF;" d="M320.175,243.639c-0.007,0.556-0.463,1.002-1.019,0.995
				c-0.556-0.007-1.001-0.463-0.995-1.019c0.007-0.556,0.463-1.002,1.019-0.995C319.736,242.626,320.181,243.083,320.175,243.639z"
				/>
			<path style="opacity:0.35;fill:#FFFFFF;" d="M287.091,231.154c-0.007,0.556-0.463,1.001-1.019,0.995
				c-0.556-0.007-1.001-0.463-0.995-1.019c0.007-0.556,0.463-1.002,1.019-0.995C286.653,230.141,287.098,230.597,287.091,231.154z"
				/>
			<path style="opacity:0.35;fill:#FFFFFF;" d="M216.219,178.934c-0.007,0.556-0.463,1.002-1.019,0.995
				c-0.556-0.007-1.002-0.463-0.995-1.019c0.007-0.556,0.463-1.001,1.019-0.995C215.78,177.922,216.225,178.378,216.219,178.934z"/>
			<path style="opacity:0.35;fill:#FFFFFF;" d="M221.074,110.51c-0.007,0.556-0.463,1.002-1.019,0.995
				c-0.556-0.007-1.002-0.463-0.995-1.019c0.007-0.556,0.463-1.002,1.019-0.995C220.635,109.498,221.081,109.954,221.074,110.51z"/>
			<path style="opacity:0.35;fill:#FFFFFF;" d="M270.598,96.003c-0.007,0.556-0.463,1.001-1.019,0.995
				c-0.556-0.007-1.001-0.463-0.995-1.019c0.007-0.556,0.463-1.002,1.019-0.995C270.159,94.99,270.604,95.447,270.598,96.003z"/>
			<path style="opacity:0.35;fill:#FFFFFF;" d="M269.11,103.866c-0.007,0.556-0.463,1.002-1.019,0.995
				c-0.556-0.007-1.002-0.463-0.995-1.019c0.007-0.556,0.463-1.002,1.019-0.995C268.671,102.854,269.116,103.31,269.11,103.866z"/>
			<path style="opacity:0.35;fill:#FFFFFF;" d="M280.651,180.721c-0.007,0.556-0.463,1.002-1.019,0.995
				c-0.556-0.007-1.001-0.463-0.995-1.019c0.007-0.556,0.463-1.001,1.019-0.995C280.213,179.708,280.658,180.165,280.651,180.721z"
				/>
			<path style="opacity:0.35;fill:#FFFFFF;" d="M317.413,138.867c-0.007,0.556-0.463,1.001-1.019,0.995
				c-0.556-0.007-1.001-0.463-0.995-1.019c0.007-0.556,0.463-1.001,1.019-0.995C316.974,137.854,317.42,138.311,317.413,138.867z"/>
			<path style="opacity:0.35;fill:#FFFFFF;" d="M368.533,176.302c-0.007,0.556-0.463,1.001-1.019,0.995
				c-0.556-0.007-1.001-0.463-0.995-1.019c0.007-0.556,0.463-1.002,1.019-0.995C368.094,175.289,368.539,175.745,368.533,176.302z"
				/>
			<path style="opacity:0.35;fill:#FFFFFF;" d="M242.725,235.653c-0.007,0.556-0.463,1.001-1.019,0.995
				c-0.556-0.007-1.001-0.463-0.995-1.019c0.007-0.556,0.463-1.001,1.019-0.995C242.286,234.64,242.731,235.096,242.725,235.653z"/>
			<path style="opacity:0.35;fill:#FFFFFF;" d="M248.507,340.461c-0.007,0.556-0.463,1.001-1.019,0.995
				c-0.556-0.007-1.002-0.463-0.995-1.019c0.007-0.556,0.463-1.002,1.019-0.995C248.069,339.449,248.514,339.905,248.507,340.461z"
				/>
			<path style="opacity:0.35;fill:#FFFFFF;" d="M189.194,331.687c-0.007,0.556-0.463,1.001-1.019,0.995
				c-0.556-0.007-1.002-0.463-0.995-1.019c0.007-0.556,0.463-1.001,1.019-0.995C188.756,330.675,189.201,331.131,189.194,331.687z"
				/>
			<path style="fill:#FFFFFF;" d="M154.356,214.442c-0.007,0.556-0.463,1.001-1.019,0.995c-0.556-0.007-1.001-0.463-0.995-1.019
				c0.007-0.556,0.463-1.001,1.019-0.995C153.917,213.43,154.363,213.886,154.356,214.442z"/>
			<path style="fill:#FFFFFF;" d="M215.74,301.795c-0.007,0.556-0.463,1.001-1.019,0.995c-0.556-0.007-1.001-0.463-0.995-1.019
				c0.007-0.556,0.463-1.001,1.019-0.995C215.302,300.783,215.747,301.239,215.74,301.795z"/>
			<path style="fill:#FFFFFF;" d="M246.911,222.611c-0.007,0.556-0.463,1.001-1.019,0.995c-0.556-0.007-1.001-0.463-0.995-1.019
				c0.007-0.556,0.463-1.001,1.019-0.995S246.917,222.055,246.911,222.611z"/>
			<path style="fill:#FFFFFF;" d="M281.262,380.134c-0.007,0.556-0.463,1.001-1.019,0.995c-0.556-0.007-1.001-0.463-0.995-1.019
				c0.007-0.556,0.463-1.001,1.019-0.995C280.823,379.121,281.269,379.578,281.262,380.134z"/>
			<path style="fill:#FFFFFF;" d="M338.105,259.969c-0.007,0.556-0.463,1.001-1.019,0.995c-0.556-0.007-1.001-0.463-0.995-1.019
				c0.007-0.556,0.463-1.001,1.019-0.995C337.667,258.957,338.112,259.413,338.105,259.969z"/>
			<path style="fill:#FFFFFF;" d="M338.293,411.036c-0.007,0.556-0.463,1.001-1.019,0.995c-0.556-0.007-1.001-0.463-0.995-1.019
				c0.007-0.556,0.463-1.001,1.019-0.995C337.854,410.024,338.3,410.48,338.293,411.036z"/>
			<path style="fill:#FFFFFF;" d="M240.594,411.869c-0.007,0.556-0.463,1.002-1.019,0.995c-0.556-0.007-1.001-0.463-0.995-1.019
				c0.007-0.556,0.463-1.001,1.019-0.995C240.156,410.857,240.601,411.313,240.594,411.869z"/>
		</g>
		<g>
			<g>
				<path style="fill:#FFFFFF;" d="M271.278,428.256c-12.658,0-22.955-10.298-22.955-22.955c0-12.658,10.298-22.955,22.955-22.955
					s22.955,10.298,22.955,22.955C294.233,417.959,283.935,428.256,271.278,428.256z M271.278,383.466
					c-12.04,0-21.836,9.796-21.836,21.836c0,12.04,9.796,21.836,21.836,21.836c12.04,0,21.836-9.796,21.836-21.836
					C293.113,393.261,283.318,383.466,271.278,383.466z"/>
			</g>
			<g>
				<path style="fill:#FFFFFF;" d="M271.278,428.256c-12.658,0-22.955-10.298-22.955-22.955c0-12.658,10.298-22.955,22.955-22.955
					c2.342,0,4.659,0.354,6.886,1.054l1.702,0.534l-1.702,0.534c-9.142,2.873-15.284,11.245-15.284,20.834
					c0,9.589,6.142,17.961,15.284,20.834l1.702,0.534l-1.702,0.534C275.937,427.902,273.62,428.256,271.278,428.256z
					 M271.278,383.466c-12.04,0-21.836,9.796-21.836,21.836c0,12.04,9.796,21.836,21.836,21.836c1.637,0,3.261-0.182,4.848-0.542
					c-8.663-3.477-14.366-11.82-14.366-21.293c0-9.473,5.703-17.816,14.366-21.293C274.539,383.647,272.915,383.466,271.278,383.466
					z"/>
			</g>
			<g>
				<path style="fill:#FFFFFF;" d="M282.092,386.043c-0.144,0-0.288-0.055-0.397-0.165c-0.219-0.22-0.216-0.574,0.002-0.792
					l5.983-5.937c0.221-0.22,0.575-0.218,0.792,0.002c0.219,0.22,0.216,0.574-0.002,0.792l-5.983,5.937
					C282.377,385.989,282.234,386.043,282.092,386.043z"/>
			</g>
			<g>
				<path style="fill:#FFFFFF;" d="M288.417,391.103c-0.152,0-0.304-0.061-0.414-0.183c-0.208-0.23-0.191-0.583,0.037-0.792
					l10.855-9.877c0.232-0.207,0.584-0.19,0.792,0.037c0.208,0.23,0.191,0.583-0.037,0.792l-10.855,9.877
					C288.686,391.055,288.551,391.103,288.417,391.103z"/>
			</g>
			<g>
				<path style="fill:#FFFFFF;" d="M291.579,396.163c-0.171,0-0.34-0.079-0.451-0.228c-0.184-0.248-0.131-0.599,0.118-0.783
					l6.573-4.859c0.247-0.18,0.598-0.131,0.783,0.118c0.184,0.248,0.131,0.599-0.118,0.783l-6.573,4.858
					C291.812,396.126,291.695,396.163,291.579,396.163z"/>
			</g>
			<g>
				<path style="fill:#FFFFFF;" d="M294.11,401.855c-0.211,0-0.414-0.12-0.508-0.326c-0.129-0.281-0.007-0.614,0.274-0.743
					l10.761-4.953c0.278-0.128,0.613-0.008,0.742,0.274c0.129,0.281,0.007,0.614-0.274,0.743l-10.761,4.953
					C294.268,401.839,294.188,401.855,294.11,401.855z"/>
			</g>
			<g>
				<path style="fill:#FFFFFF;" d="M294.109,408.812c-0.288,0-0.533-0.221-0.557-0.513c-0.026-0.308,0.203-0.579,0.511-0.605
					l8.522-0.712c0.298-0.027,0.58,0.202,0.605,0.511c0.026,0.308-0.203,0.58-0.511,0.605l-8.522,0.712
					C294.14,408.811,294.125,408.812,294.109,408.812z"/>
			</g>
			<g>
				<path style="fill:#FFFFFF;" d="M303.751,419.298c-0.084,0-0.169-0.019-0.249-0.059l-10.907-5.425
					c-0.277-0.138-0.389-0.474-0.251-0.75c0.137-0.277,0.476-0.39,0.75-0.251l10.907,5.425c0.277,0.138,0.389,0.474,0.252,0.75
					C304.155,419.185,303.957,419.298,303.751,419.298z"/>
			</g>
			<g>
				<path style="fill:#FFFFFF;" d="M293.673,424.897c-0.131,0-0.263-0.046-0.37-0.14l-4.623-4.067
					c-0.232-0.203-0.255-0.558-0.05-0.79c0.203-0.232,0.558-0.256,0.789-0.05l4.623,4.067c0.232,0.203,0.255,0.558,0.05,0.789
					C293.983,424.833,293.829,424.897,293.673,424.897z"/>
			</g>
			<g>
				<path style="fill:#FFFFFF;" d="M289.194,431.616c-0.151,0-0.302-0.061-0.412-0.182l-5.837-6.358
					c-0.209-0.228-0.195-0.582,0.034-0.791c0.226-0.208,0.582-0.194,0.791,0.034l5.837,6.358c0.209,0.228,0.195,0.582-0.034,0.791
					C289.465,431.566,289.33,431.616,289.194,431.616z"/>
			</g>
		</g>
		<path style="fill:#FFFFFF;" d="M313.827,403.064c0,1.237-1.003,2.24-2.24,2.24s-2.24-1.003-2.24-2.24
			c0-1.237,1.003-2.24,2.24-2.24S313.827,401.827,313.827,403.064z"/>
		<g>
			<g>
				<g>
					<path style="fill:#FFFFFF;" d="M216.967,206.957c-0.13,0-0.236-0.105-0.236-0.236v-3.296c0-0.13,0.105-0.235,0.236-0.235
						c0.13,0,0.236,0.105,0.236,0.235v3.296C217.202,206.852,217.097,206.957,216.967,206.957z"/>
				</g>
				<g>
					<path style="fill:#FFFFFF;" d="M216.967,212.137c-0.13,0-0.236-0.105-0.236-0.236v-3.297c0-0.13,0.105-0.235,0.236-0.235
						c0.13,0,0.236,0.105,0.236,0.235v3.297C217.202,212.032,217.097,212.137,216.967,212.137z"/>
				</g>
				<g>
					<path style="fill:#FFFFFF;" d="M221.205,207.899h-3.296c-0.13,0-0.236-0.105-0.236-0.235c0-0.13,0.105-0.236,0.236-0.236h3.296
						c0.13,0,0.235,0.105,0.235,0.236C221.44,207.794,221.335,207.899,221.205,207.899z"/>
				</g>
				<g>
					<path style="fill:#FFFFFF;" d="M216.025,207.899h-3.296c-0.13,0-0.236-0.105-0.236-0.235c0-0.13,0.105-0.236,0.236-0.236h3.296
						c0.13,0,0.235,0.105,0.235,0.236C216.26,207.794,216.155,207.899,216.025,207.899z"/>
				</g>
				<g>
					<path style="fill:#FFFFFF;" d="M219.221,210.369c-0.065,0-0.129-0.027-0.176-0.079l-1.79-2.007
						c-0.087-0.097-0.078-0.246,0.019-0.333c0.098-0.087,0.246-0.078,0.333,0.019l1.79,2.007c0.087,0.097,0.078,0.246-0.019,0.333
						C219.332,210.349,219.276,210.369,219.221,210.369z"/>
				</g>
				<g>
					<path style="fill:#FFFFFF;" d="M216.407,207.214c-0.065,0-0.129-0.027-0.176-0.079l-1.79-2.007
						c-0.087-0.097-0.078-0.246,0.019-0.333c0.097-0.087,0.246-0.078,0.332,0.019l1.79,2.007c0.087,0.097,0.078,0.246-0.019,0.333
						C216.519,207.194,216.463,207.214,216.407,207.214z"/>
				</g>
				<g>
					<path style="fill:#FFFFFF;" d="M214.337,210.089c-0.065,0-0.129-0.027-0.176-0.079c-0.086-0.097-0.078-0.246,0.019-0.333
						l2.007-1.79c0.097-0.087,0.246-0.078,0.333,0.019c0.086,0.097,0.078,0.246-0.019,0.332l-2.008,1.79
						C214.449,210.07,214.393,210.089,214.337,210.089z"/>
				</g>
				<g>
					<path style="fill:#FFFFFF;" d="M217.492,207.276c-0.065,0-0.129-0.027-0.176-0.079c-0.087-0.097-0.078-0.246,0.019-0.332
						l2.007-1.79c0.098-0.087,0.246-0.078,0.333,0.019c0.086,0.097,0.078,0.246-0.019,0.332l-2.007,1.79
						C217.604,207.256,217.548,207.276,217.492,207.276z"/>
				</g>
			</g>
			<g>
				<g>
					<path style="fill:#FFFFFF;" d="M298.71,255.107c-0.13,0-0.235-0.105-0.235-0.235v-3.296c0-0.13,0.105-0.236,0.235-0.236
						c0.13,0,0.236,0.105,0.236,0.236v3.296C298.946,255.002,298.84,255.107,298.71,255.107z"/>
				</g>
				<g>
					<path style="fill:#FFFFFF;" d="M298.71,260.287c-0.13,0-0.235-0.105-0.235-0.236v-3.296c0-0.13,0.105-0.236,0.235-0.236
						c0.13,0,0.236,0.105,0.236,0.236v3.296C298.946,260.182,298.84,260.287,298.71,260.287z"/>
				</g>
				<g>
					<path style="fill:#FFFFFF;" d="M302.948,256.049h-3.296c-0.13,0-0.236-0.105-0.236-0.236c0-0.13,0.105-0.236,0.236-0.236h3.296
						c0.13,0,0.236,0.105,0.236,0.236C303.184,255.944,303.079,256.049,302.948,256.049z"/>
				</g>
				<g>
					<path style="fill:#FFFFFF;" d="M297.768,256.049h-3.296c-0.13,0-0.236-0.105-0.236-0.236c0-0.13,0.105-0.236,0.236-0.236h3.296
						c0.13,0,0.235,0.105,0.235,0.236C298.004,255.944,297.898,256.049,297.768,256.049z"/>
				</g>
				<g>
					<path style="fill:#FFFFFF;" d="M300.964,258.519c-0.065,0-0.129-0.027-0.176-0.079l-1.79-2.007
						c-0.086-0.097-0.078-0.246,0.019-0.333c0.098-0.087,0.246-0.078,0.333,0.019l1.79,2.007c0.087,0.097,0.078,0.246-0.019,0.332
						C301.076,258.499,301.02,258.519,300.964,258.519z"/>
				</g>
				<g>
					<path style="fill:#FFFFFF;" d="M298.15,255.364c-0.065,0-0.129-0.027-0.176-0.079l-1.79-2.008
						c-0.086-0.097-0.078-0.246,0.019-0.333c0.098-0.087,0.246-0.078,0.333,0.019l1.79,2.007c0.087,0.097,0.078,0.246-0.019,0.333
						C298.262,255.344,298.206,255.364,298.15,255.364z"/>
				</g>
				<g>
					<path style="fill:#FFFFFF;" d="M296.081,258.24c-0.065,0-0.129-0.027-0.176-0.079c-0.087-0.097-0.078-0.246,0.019-0.332
						l2.007-1.79c0.097-0.087,0.246-0.078,0.333,0.019c0.086,0.097,0.078,0.246-0.019,0.332l-2.007,1.79
						C296.193,258.22,296.137,258.24,296.081,258.24z"/>
				</g>
				<g>
					<path style="fill:#FFFFFF;" d="M299.236,255.426c-0.065,0-0.129-0.027-0.176-0.079c-0.086-0.097-0.078-0.246,0.019-0.333
						l2.008-1.79c0.098-0.087,0.246-0.078,0.332,0.019c0.086,0.097,0.078,0.246-0.019,0.332l-2.007,1.79
						C299.348,255.407,299.291,255.426,299.236,255.426z"/>
				</g>
			</g>
			<g>
				<g>
					<path style="fill:#FFFFFF;" d="M312.147,369.058c-0.179,0-0.324-0.145-0.324-0.324v-4.538c0-0.179,0.145-0.324,0.324-0.324
						s0.324,0.145,0.324,0.324v4.538C312.471,368.913,312.327,369.058,312.147,369.058z"/>
				</g>
				<g>
					<path style="fill:#FFFFFF;" d="M312.147,376.189c-0.179,0-0.324-0.145-0.324-0.324v-4.538c0-0.179,0.145-0.324,0.324-0.324
						s0.324,0.145,0.324,0.324v4.538C312.471,376.044,312.327,376.189,312.147,376.189z"/>
				</g>
				<g>
					<path style="fill:#FFFFFF;" d="M317.982,370.355h-4.538c-0.179,0-0.324-0.145-0.324-0.324c0-0.179,0.145-0.324,0.324-0.324
						h4.538c0.179,0,0.324,0.145,0.324,0.324C318.306,370.21,318.161,370.355,317.982,370.355z"/>
				</g>
				<g>
					<path style="fill:#FFFFFF;" d="M310.851,370.355h-4.538c-0.179,0-0.324-0.145-0.324-0.324c0-0.179,0.145-0.324,0.324-0.324
						h4.538c0.179,0,0.324,0.145,0.324,0.324C311.175,370.21,311.03,370.355,310.851,370.355z"/>
				</g>
				<g>
					<path style="fill:#FFFFFF;" d="M315.25,373.755c-0.089,0-0.178-0.037-0.242-0.108l-2.465-2.763
						c-0.119-0.134-0.108-0.339,0.026-0.458c0.134-0.12,0.338-0.108,0.458,0.026l2.465,2.764c0.119,0.134,0.108,0.339-0.026,0.458
						C315.404,373.728,315.327,373.755,315.25,373.755z"/>
				</g>
				<g>
					<path style="fill:#FFFFFF;" d="M311.377,369.412c-0.089,0-0.178-0.037-0.242-0.108l-2.465-2.763
						c-0.119-0.134-0.108-0.339,0.026-0.458c0.134-0.12,0.339-0.107,0.458,0.026l2.465,2.763c0.119,0.134,0.108,0.339-0.026,0.458
						C311.531,369.385,311.453,369.412,311.377,369.412z"/>
				</g>
				<g>
					<path style="fill:#FFFFFF;" d="M308.528,373.37c-0.089,0-0.178-0.037-0.242-0.108c-0.119-0.134-0.108-0.339,0.026-0.458
						l2.763-2.464c0.133-0.12,0.338-0.108,0.458,0.026c0.119,0.134,0.108,0.339-0.026,0.458l-2.763,2.464
						C308.682,373.343,308.605,373.37,308.528,373.37z"/>
				</g>
				<g>
					<path style="fill:#FFFFFF;" d="M312.871,369.497c-0.089,0-0.178-0.037-0.242-0.108c-0.119-0.134-0.108-0.339,0.026-0.458
						l2.763-2.465c0.134-0.12,0.339-0.108,0.458,0.026c0.119,0.134,0.108,0.339-0.026,0.458l-2.764,2.465
						C313.025,369.47,312.948,369.497,312.871,369.497z"/>
				</g>
			</g>
			<g>
				<g>
					<path style="fill:#FFFFFF;" d="M335.663,239.164c-0.179,0-0.324-0.145-0.324-0.324v-4.538c0-0.179,0.145-0.324,0.324-0.324
						c0.179,0,0.324,0.145,0.324,0.324v4.538C335.987,239.019,335.842,239.164,335.663,239.164z"/>
				</g>
				<g>
					<path style="fill:#FFFFFF;" d="M335.663,246.296c-0.179,0-0.324-0.145-0.324-0.324v-4.538c0-0.179,0.145-0.324,0.324-0.324
						c0.179,0,0.324,0.145,0.324,0.324v4.538C335.987,246.151,335.842,246.296,335.663,246.296z"/>
				</g>
				<g>
					<path style="fill:#FFFFFF;" d="M341.497,240.461h-4.538c-0.179,0-0.324-0.145-0.324-0.324s0.145-0.324,0.324-0.324h4.538
						c0.179,0,0.324,0.145,0.324,0.324S341.676,240.461,341.497,240.461z"/>
				</g>
				<g>
					<path style="fill:#FFFFFF;" d="M334.366,240.461h-4.538c-0.179,0-0.324-0.145-0.324-0.324s0.145-0.324,0.324-0.324h4.538
						c0.179,0,0.324,0.145,0.324,0.324S334.545,240.461,334.366,240.461z"/>
				</g>
				<g>
					<path style="fill:#FFFFFF;" d="M338.765,243.861c-0.089,0-0.178-0.037-0.242-0.108l-2.465-2.763
						c-0.119-0.134-0.108-0.339,0.026-0.458c0.134-0.12,0.338-0.108,0.458,0.026l2.465,2.764c0.119,0.133,0.108,0.339-0.026,0.458
						C338.919,243.834,338.842,243.861,338.765,243.861z"/>
				</g>
				<g>
					<path style="fill:#FFFFFF;" d="M334.892,239.518c-0.089,0-0.178-0.037-0.242-0.108l-2.465-2.764
						c-0.119-0.133-0.108-0.339,0.026-0.458c0.134-0.12,0.339-0.107,0.458,0.026l2.465,2.763c0.119,0.134,0.108,0.339-0.026,0.458
						C335.046,239.491,334.969,239.518,334.892,239.518z"/>
				</g>
				<g>
					<path style="fill:#FFFFFF;" d="M332.043,243.476c-0.089,0-0.178-0.037-0.242-0.108c-0.119-0.134-0.108-0.339,0.026-0.458
						l2.763-2.464c0.134-0.12,0.338-0.108,0.458,0.026c0.119,0.134,0.108,0.339-0.026,0.458l-2.763,2.464
						C332.197,243.449,332.12,243.476,332.043,243.476z"/>
				</g>
				<g>
					<path style="fill:#FFFFFF;" d="M336.386,239.604c-0.089,0-0.178-0.037-0.242-0.108c-0.119-0.134-0.108-0.339,0.026-0.458
						l2.763-2.465c0.134-0.12,0.339-0.108,0.458,0.026c0.119,0.133,0.108,0.339-0.026,0.458l-2.764,2.465
						C336.54,239.577,336.463,239.604,336.386,239.604z"/>
				</g>
			</g>
			<g>
				<g>
					<path style="fill:#FFFFFF;" d="M257.279,325.387c-0.179,0-0.324-0.145-0.324-0.324v-4.538c0-0.179,0.145-0.324,0.324-0.324
						c0.179,0,0.324,0.145,0.324,0.324v4.538C257.603,325.242,257.458,325.387,257.279,325.387z"/>
				</g>
				<g>
					<path style="fill:#FFFFFF;" d="M257.279,332.518c-0.179,0-0.324-0.145-0.324-0.324v-4.538c0-0.179,0.145-0.324,0.324-0.324
						c0.179,0,0.324,0.145,0.324,0.324v4.538C257.603,332.373,257.458,332.518,257.279,332.518z"/>
				</g>
				<g>
					<path style="fill:#FFFFFF;" d="M263.113,326.683h-4.538c-0.179,0-0.324-0.145-0.324-0.324s0.145-0.324,0.324-0.324h4.538
						c0.179,0,0.324,0.145,0.324,0.324S263.292,326.683,263.113,326.683z"/>
				</g>
				<g>
					<path style="fill:#FFFFFF;" d="M255.982,326.683h-4.538c-0.179,0-0.324-0.145-0.324-0.324s0.145-0.324,0.324-0.324h4.538
						c0.179,0,0.324,0.145,0.324,0.324S256.161,326.683,255.982,326.683z"/>
				</g>
				<g>
					<path style="fill:#FFFFFF;" d="M260.381,330.084c-0.089,0-0.178-0.037-0.242-0.108l-2.465-2.763
						c-0.119-0.134-0.108-0.339,0.026-0.458c0.134-0.12,0.338-0.108,0.458,0.026l2.465,2.763c0.119,0.134,0.108,0.339-0.026,0.458
						C260.535,330.057,260.458,330.084,260.381,330.084z"/>
				</g>
				<g>
					<path style="fill:#FFFFFF;" d="M256.508,325.741c-0.089,0-0.178-0.037-0.242-0.108l-2.465-2.764
						c-0.119-0.133-0.108-0.339,0.026-0.458c0.134-0.12,0.339-0.107,0.458,0.026l2.465,2.763c0.119,0.134,0.108,0.339-0.026,0.458
						C256.662,325.714,256.585,325.741,256.508,325.741z"/>
				</g>
				<g>
					<path style="fill:#FFFFFF;" d="M253.659,329.699c-0.089,0-0.178-0.037-0.242-0.108c-0.119-0.134-0.108-0.339,0.026-0.458
						l2.764-2.464c0.134-0.12,0.338-0.108,0.458,0.026c0.119,0.134,0.108,0.339-0.026,0.458l-2.763,2.464
						C253.813,329.672,253.736,329.699,253.659,329.699z"/>
				</g>
				<g>
					<path style="fill:#FFFFFF;" d="M258.002,325.826c-0.089,0-0.178-0.037-0.242-0.108c-0.119-0.134-0.108-0.339,0.026-0.458
						l2.763-2.465c0.134-0.12,0.339-0.108,0.458,0.026c0.119,0.134,0.108,0.339-0.026,0.458l-2.764,2.465
						C258.156,325.799,258.079,325.826,258.002,325.826z"/>
				</g>
			</g>
		</g>
		<g>
			<path style="fill:#FFFFFF;" d="M199.301,261.119c12.674,0.717,25.188,3.845,36.931,8.731
				c11.736,4.924,22.592,12.072,31.532,21.195c8.834,9.219,15.559,20.42,19.614,32.495l1.428,4.558
				c0.259,0.753,0.438,1.529,0.617,2.305l0.55,2.322l0.55,2.321c0.196,0.771,0.365,1.548,0.475,2.336l0.775,4.705
				c0.114,0.786,0.277,1.565,0.35,2.357l0.219,2.373l0.438,4.743c0.19,3.168,0.205,6.345,0.298,9.512
				c-0.391-12.669-2.351-25.319-6.513-37.249c-4.186-11.904-10.818-22.952-19.604-32c-8.765-9.074-19.498-16.132-31.066-21.185
				c-5.783-2.543-11.789-4.584-17.909-6.185C211.867,262.837,205.618,261.666,199.301,261.119z"/>
			<path style="fill:#FFFFFF;" d="M204.615,247.975c11.216,1.878,22.317,4.42,33.315,7.334c10.988,2.953,21.86,6.375,32.511,10.413
				c5.319,2.034,10.57,4.255,15.72,6.693c5.151,2.43,10.234,5.037,15.063,8.078c4.838,3.013,9.512,6.322,13.753,10.144
				c4.203,3.84,7.99,8.244,10.573,13.326c-2.806-4.956-6.642-9.238-10.939-12.916c-4.282-3.71-8.976-6.915-13.835-9.818
				c-2.422-1.469-4.927-2.793-7.414-4.15c-2.532-1.273-5.048-2.576-7.634-3.741c-5.138-2.396-10.379-4.573-15.687-6.572
				c-10.577-4.11-21.423-7.507-32.339-10.631c-5.462-1.554-10.955-3-16.472-4.354C215.721,250.397,210.18,249.137,204.615,247.975z"
				/>
			<path style="fill:#FFFFFF;" d="M212.453,234.538c10.231,0.559,20.445,1.372,30.65,2.291c10.205,0.922,20.391,2.047,30.566,3.277
				c10.162,1.325,20.318,2.749,30.4,4.632c5.039,0.948,10.06,2.01,15.028,3.294c2.481,0.651,4.941,1.393,7.367,2.23
				c2.393,0.905,4.835,1.803,6.925,3.312l-1.665-0.954c-0.577-0.273-1.171-0.514-1.754-0.772c-1.173-0.501-2.393-0.896-3.6-1.305
				c-2.442-0.754-4.912-1.411-7.405-1.979c-4.976-1.172-10.002-2.136-15.047-2.979c-10.089-1.703-20.226-3.133-30.388-4.37
				c-10.152-1.321-20.331-2.428-30.511-3.533l-15.279-1.595L212.453,234.538z"/>
			<path style="fill:#FFFFFF;" d="M275.161,224.46c3.883,10.285,7.217,20.772,10.284,31.331c3.055,10.565,5.694,21.248,8.072,31.989
				c2.265,10.766,4.129,21.618,5.521,32.533c1.285,10.929,1.99,21.927,1.877,32.92c-0.302-5.491-0.352-10.983-0.958-16.445
				c-0.361-5.478-1.119-10.918-1.773-16.365c-1.566-10.862-3.415-21.684-5.761-32.409c-2.281-10.737-4.931-21.394-7.804-31.992
				c-1.435-5.299-2.94-10.581-4.53-15.838C278.551,234.912,276.88,229.68,275.161,224.46z"/>
			<path style="fill:#FFFFFF;" d="M209.128,118.082c3.131-0.013,6.208,0.096,9.267-0.03c1.527-0.056,3.048-0.178,4.533-0.446
				c1.467-0.294,2.972-0.675,4.117-1.763c-0.808,1.392-2.405,2.177-3.91,2.612c-1.536,0.463-3.122,0.637-4.695,0.715
				C215.291,119.264,212.147,118.942,209.128,118.082z"/>
			<path style="fill:#FFFFFF;" d="M261.725,110.865c3.127,0.161,6.193,0.44,9.254,0.483c1.528,0.028,3.053-0.009,4.551-0.194
				c1.481-0.212,3.004-0.51,4.208-1.533c-0.884,1.345-2.522,2.04-4.048,2.392c-1.559,0.377-3.153,0.463-4.728,0.454
				C267.812,112.387,264.691,111.892,261.725,110.865z"/>
			<path style="fill:#FFFFFF;" d="M310.302,117.842c2.882,1.222,5.667,2.535,8.529,3.624c1.425,0.55,2.871,1.038,4.341,1.377
				c1.464,0.308,2.997,0.55,4.478,0.002c-1.291,0.961-3.069,1.053-4.623,0.86c-1.594-0.18-3.121-0.645-4.597-1.193
				C315.5,121.358,312.737,119.823,310.302,117.842z"/>
			<path style="fill:#FFFFFF;" d="M356.002,164.406c2.251,0.846,4.382,1.81,6.554,2.641c1.083,0.417,2.176,0.781,3.282,1.069
				c1.11,0.268,2.242,0.452,3.403,0.108c-0.962,0.787-2.353,0.889-3.546,0.754c-1.227-0.127-2.405-0.47-3.539-0.886
				C359.916,167.195,357.804,166.013,356.002,164.406z"/>
			<path style="fill:#FFFFFF;" d="M345.924,189.041c2.251,0.846,4.382,1.81,6.554,2.641c1.083,0.417,2.176,0.781,3.282,1.069
				c1.11,0.268,2.242,0.452,3.403,0.108c-0.961,0.787-2.353,0.889-3.546,0.754c-1.227-0.128-2.405-0.47-3.538-0.886
				C349.838,191.83,347.726,190.648,345.924,189.041z"/>
			<path style="fill:#FFFFFF;" d="M259.485,151.177c3.127,0.161,6.193,0.44,9.255,0.483c1.527,0.029,3.053-0.009,4.55-0.194
				c1.481-0.212,3.004-0.51,4.208-1.533c-0.884,1.345-2.522,2.04-4.048,2.392c-1.559,0.377-3.153,0.463-4.728,0.454
				C265.573,152.699,262.452,152.204,259.485,151.177z"/>
			<path style="fill:#FFFFFF;" d="M302.107,151.898c3.055,0.685,6.031,1.476,9.041,2.034c1.501,0.285,3.01,0.505,4.518,0.575
				c1.496,0.04,3.047,0.003,4.406-0.802c-1.097,1.177-2.829,1.587-4.393,1.676c-1.6,0.109-3.186-0.074-4.737-0.349
				C307.852,154.423,304.859,153.41,302.107,151.898z"/>
			<path style="fill:#FFFFFF;" d="M146.176,221.973c2.924-1.118,5.841-2.104,8.658-3.304c1.408-0.592,2.788-1.243,4.083-2.019
				c1.268-0.793,2.541-1.682,3.227-3.105c-0.264,1.588-1.48,2.887-2.734,3.826c-1.273,0.976-2.695,1.7-4.139,2.329
				C152.359,220.901,149.305,221.711,146.176,221.973z"/>
			<path style="fill:#FFFFFF;" d="M209.128,156.154c3.131-0.013,6.208,0.096,9.267-0.03c1.527-0.056,3.048-0.178,4.533-0.446
				c1.467-0.294,2.972-0.676,4.117-1.763c-0.808,1.392-2.405,2.177-3.91,2.612c-1.536,0.463-3.122,0.637-4.695,0.715
				C215.291,157.336,212.147,157.014,209.128,156.154z"/>
			<path style="fill:#FFFFFF;" d="M241.042,208.223c2.247,1.352,4.572,2.557,6.963,3.607c2.378,1.077,4.81,2.03,7.288,2.828
				c4.951,1.595,10.062,2.747,15.247,3.032c5.173,0.4,10.397-0.044,15.443-1.271c2.52-0.617,5.01-1.405,7.398-2.45
				c2.436-0.945,4.716-2.231,7.008-3.507c-4.28,3.027-9.085,5.39-14.189,6.791c-5.1,1.426-10.454,1.874-15.735,1.553
				c-5.283-0.384-10.492-1.544-15.452-3.337C250.068,213.65,245.297,211.305,241.042,208.223z"/>
		</g>
		<g>
			<path id="SVGID_x5F_1_x5F_" style="fill:none;" d="M202.1,258.32c0,0,92.657,3.653,93.776,99.953"/>
			<text>			<textPath  xlink:href="#SVGID_x5F_1_x5F_" startOffset="19.531%">
<tspan  style="fill:#FFFFFF; font-family:'Caroni-Regular'; font-size:13.4373px;">LIFE</tspan>			</textPath>
</text>
			<path id="SVGID_x5F_00000059281203258977610700000006526004329926486182_x5F_" style="fill:none;" d="M199.016,241.257
				c0,0,100.78,17.916,120.936,55.989"/>
			<text>			<textPath  xlink:href="#SVGID_x5F_00000059281203258977610700000006526004329926486182_x5F_" startOffset="13.623%">
<tspan  style="fill:#FFFFFF; font-family:'Caroni-Regular'; font-size:13.4373px;">HEAD</tspan>			</textPath>
</text>
			<path id="SVGID_x5F_00000152978455760565112310000003242762486894609054_x5F_" style="fill:none;" d="M212.453,228.939
				c0,0,105.259,7.838,120.936,19.036"/>
			<text>			<textPath  xlink:href="#SVGID_x5F_00000152978455760565112310000003242762486894609054_x5F_" startOffset="17.969%">
<tspan  style="fill:#FFFFFF; font-family:'Caroni-Regular'; font-size:13.4373px;">HEART</tspan>			</textPath>
</text>
			<path id="SVGID_x5F_00000131369200492593687870000018419719843183361685_x5F_" style="fill:none;" d="M279.64,224.46
				c0,0,25.755,70.546,25.755,128.774"/>
			<text>			<textPath  xlink:href="#SVGID_x5F_00000131369200492593687870000018419719843183361685_x5F_" startOffset="59.766%">
<tspan  style="fill:#FFFFFF; font-family:'Caroni-Regular'; font-size:13.4373px;">DESTINY</tspan>			</textPath>
</text>
			<path id="SVGID_x5F_00000051370785258383180870000002516520632093187516_x5F_" style="fill:none;" d="M241.042,204.864
				c0,0,30.234,21.276,59.348,2.24"/>
			<text>			<textPath  xlink:href="#SVGID_x5F_00000051370785258383180870000002516520632093187516_x5F_" startOffset="20.263%">
<tspan  style="fill:#FFFFFF; font-family:'Caroni-Regular'; font-size:8.9582px;">CURVE OF VENUS</tspan>			</textPath>
</text>
			<path id="SVGID_x5F_00000156581086684423007780000015871543333504405657_x5F_" style="fill:none;" d="M129.064,220.953
				c0,0,27.346-1.709,32.473-15.382"/>
			<text>			<textPath  xlink:href="#SVGID_x5F_00000156581086684423007780000015871543333504405657_x5F_" startOffset="25.781%">
<tspan  style="fill:#FFFFFF; font-family:'Caroni-Regular'; font-size:13.673px;">WILL</tspan>			</textPath>
</text>
			<path id="SVGID_x5F_00000079471225953931449670000015933336191120411047_x5F_" style="fill:none;" d="M142.502,251.187
				c0,0,27.346-1.709,32.473-15.382"/>
			<text>			<textPath  xlink:href="#SVGID_x5F_00000079471225953931449670000015933336191120411047_x5F_" startOffset="25.781%">
<tspan  style="fill:#FFFFFF; font-family:'Caroni-Regular'; font-size:12.3175px;">LOGIC</tspan>			</textPath>
</text>
			<path id="SVGID_x5F_00000040535364349093923710000003916482574782539177_x5F_" style="fill:none;" d="M211.368,283.808
				c0,0,26.875,4.479,19.036,32.473"/>
			<text>			<textPath  xlink:href="#SVGID_x5F_00000040535364349093923710000003916482574782539177_x5F_" startOffset="23.438%">
<tspan  style="fill:#FFFFFF; font-family:'Caroni-Regular'; font-size:12.3175px;">VENUS</tspan>			</textPath>
</text>
		</g>
		<g>
			<path style="fill:#FFFFFF;" d="M219.597,94.019c0.58,0,1.116,0.332,1.609,0.995c0.39,0.687,0.585,1.419,0.585,2.194
				c0,0.882-0.244,1.448-0.731,1.696l-0.205,0.029h-0.088c-0.449,0-0.712-0.273-0.79-0.819v-0.088c0-0.219,0.117-0.434,0.351-0.644
				l0.059-0.205c-0.156-1.151-0.419-1.726-0.79-1.726c-0.775,0.463-1.438,1.643-1.989,3.539c-0.605,2.048-0.907,4.749-0.907,8.103
				c-0.107,0.371-0.351,0.556-0.731,0.556c-0.468-0.078-0.702-0.292-0.702-0.644h0.029l-0.029-0.058
				c0-4.159-0.585-7.454-1.755-9.887c-0.415-0.688-0.775-1.146-1.082-1.375h-0.088c-0.39,0-0.634,0.595-0.731,1.784
				c0,0.029,0.127,0.224,0.38,0.585l0.029,0.175v0.117c-0.122,0.527-0.376,0.79-0.761,0.79h-0.146c-0.449,0-0.751-0.38-0.907-1.141
				v-0.995c0-0.726,0.292-1.448,0.878-2.164c0.4-0.41,0.839-0.614,1.316-0.614c1.116,0,2.14,1.268,3.071,3.803
				c0.234,0.721,0.39,1.258,0.468,1.609h0.029c0-0.341,0.322-1.336,0.965-2.984C217.764,94.897,218.652,94.019,219.597,94.019z"/>
			<path style="fill:#FFFFFF;" d="M212.412,130.913c0.99,0,2.257,1.209,3.803,3.627h0.029c0.726-0.312,1.448-0.468,2.165-0.468
				c0.678,0,1.438,0.185,2.282,0.556c1.472-2.477,2.759-3.715,3.861-3.715c0.449,0.078,0.673,0.283,0.673,0.614v0.146
				c-0.137,0.429-0.361,0.644-0.673,0.644c-0.429,0.175-0.917,0.643-1.463,1.404c-0.707,0.863-1.126,1.458-1.258,1.784
				c0.995,1.209,1.492,2.243,1.492,3.101c0.024,0,0.044,0.244,0.059,0.731c0,1.726-0.712,3.169-2.135,4.329
				c-0.858,0.624-1.794,0.936-2.808,0.936h-0.146c-1.546,0-2.881-0.712-4.007-2.135c-0.605-1.009-0.907-1.906-0.907-2.691v-0.819
				c0-0.805,0.283-1.682,0.848-2.633c0.21-0.283,0.473-0.595,0.79-0.936c-0.58-0.936-1.214-1.775-1.901-2.516
				c-0.336-0.297-0.726-0.541-1.17-0.731c-0.175-0.195-0.263-0.37-0.263-0.527C211.68,131.147,211.924,130.913,212.412,130.913z
				 M214.81,139.338c0,1.399,0.644,2.54,1.931,3.423c0.58,0.273,1.116,0.41,1.609,0.41c0.916,0,1.735-0.361,2.457-1.082
				c0.741-0.834,1.111-1.711,1.111-2.633v-0.263c0-1.155-0.536-2.169-1.609-3.042c-0.624-0.429-1.287-0.643-1.989-0.643
				c-1.268,0-2.282,0.653-3.042,1.96C214.966,138.06,214.81,138.684,214.81,139.338z"/>
			<path style="fill:#FFFFFF;" d="M215.786,169.073c0.307,0,0.561,0.185,0.76,0.556c0.278,0.317,0.863,0.561,1.755,0.731
				c0.58,0.117,1.058,0.175,1.433,0.175h1.521c0.648,0,1.448-0.146,2.399-0.439c0.468-0.239,0.77-0.531,0.907-0.878
				c0.107-0.097,0.224-0.146,0.351-0.146h0.029c0.546,0,0.819,0.214,0.819,0.643c0.019,0,0.029,0.02,0.029,0.059
				c0,0.609-0.585,1.185-1.755,1.726v8.717c0.751,0.249,1.287,0.639,1.609,1.17c0.112,0.2,0.171,0.395,0.175,0.585
				c0,0.376-0.253,0.6-0.761,0.673c-0.292,0-0.536-0.205-0.731-0.614c-0.59-0.546-1.565-0.819-2.925-0.819h-1.755
				c-0.839,0-1.667,0.137-2.486,0.41c-0.273,0.137-0.566,0.419-0.878,0.848c-0.195,0.137-0.361,0.205-0.497,0.205
				c-0.361,0-0.575-0.253-0.644-0.761c0-0.507,0.497-1.053,1.492-1.638v-8.863c-0.79-0.414-1.287-0.892-1.492-1.433
				c-0.02-0.034-0.029-0.083-0.029-0.146v-0.205C215.113,169.356,215.337,169.171,215.786,169.073z M218.097,171.823v8.073
				c1.024-0.117,1.794-0.176,2.311-0.176c1.019,0.039,1.731,0.088,2.135,0.146v-7.986c-0.6,0.078-1.126,0.117-1.579,0.117h-0.965
				C219.496,171.998,218.862,171.94,218.097,171.823z"/>
			<path style="fill:#FFFFFF;" d="M326.23,100.096c1.778,0.57,3.036,1.598,3.773,3.083l0.014,0.435
				c-0.119,0.371-0.435,0.526-0.947,0.464c-0.13-0.042-0.396-0.362-0.797-0.962c-0.508-0.716-1.254-1.231-2.238-1.547l-0.585-0.188
				c-1.11-0.356-2.28-0.475-3.51-0.357c0.603,0.992,0.744,1.99,0.423,2.992c-0.359,1.119-1.189,1.856-2.491,2.212
				c-0.591,0.118-1.146,0.093-1.666-0.073l-0.111-0.036c-1.198-0.384-1.945-1.279-2.242-2.685c-0.04-0.515-0.014-0.916,0.079-1.203
				l0.161-0.501c0.332-1.035,1.159-1.732,2.483-2.091c0.978,0.047,1.687,0.07,2.128,0.068c0.775-0.151,1.7-0.192,2.774-0.124
				C324.579,99.689,325.497,99.861,326.23,100.096z M326.423,103.997l0.028,0.009c1.272,0.408,2.035,1.38,2.291,2.915
				c-0.008,0.535-0.061,0.958-0.161,1.269c-0.397,1.24-1.345,1.991-2.842,2.253c-0.373,0.044-0.857,0.022-1.453-0.067
				c-2.188,0.343-4.179,0.227-5.971-0.348c-1.254-0.402-2.323-1.123-3.207-2.165c-0.428-0.582-0.59-1.034-0.487-1.354
				c0.119-0.371,0.41-0.513,0.874-0.426c0.186,0.06,0.483,0.411,0.891,1.054c0.639,0.737,1.444,1.261,2.414,1.573
				c1.003,0.321,2.278,0.464,3.826,0.428l0.009-0.028c-0.432-0.599-0.624-1.408-0.574-2.426l0.268-0.836
				c0.167-0.52,0.635-1.056,1.406-1.607C324.589,103.778,325.486,103.697,326.423,103.997z M317.376,102.418
				c-0.207,0.645-0.052,1.279,0.466,1.9c0.246,0.222,0.504,0.377,0.773,0.463c0.701,0.225,1.383,0.013,2.046-0.634
				c0.143-0.19,0.239-0.363,0.29-0.521l0.071-0.223c0.217-0.678-0.031-1.341-0.744-1.99l-0.503-0.253
				c-0.845-0.271-1.573-0.013-2.184,0.774C317.507,102.076,317.434,102.237,317.376,102.418z M323.595,106.592
				c-0.225,0.701-0.048,1.362,0.532,1.983c0.206,0.189,0.438,0.325,0.698,0.408c0.72,0.231,1.402,0.019,2.046-0.634
				c0.134-0.162,0.23-0.336,0.29-0.521l0.054-0.167c0.213-0.664-0.001-1.306-0.642-1.926c-0.176-0.138-0.35-0.235-0.521-0.29
				l-0.195-0.063c-0.701-0.225-1.367,0.002-2,0.68C323.739,106.239,323.651,106.416,323.595,106.592z"/>
			<path style="fill:#FFFFFF;" d="M315.509,131.983c1.024,0,1.901,0.429,2.633,1.287c0.468,0.6,0.702,1.282,0.702,2.048
				c0,0.122-0.127,0.804-0.38,2.048c-0.175,1.116-0.341,3.359-0.497,6.728v0.029c0,0.712,0.283,1.141,0.848,1.287
				c0.024,0.02,0.092,0.029,0.205,0.029c0.219,0,0.541-0.146,0.965-0.439c0.088-0.039,0.185-0.059,0.293-0.059
				c0.448,0.088,0.673,0.302,0.673,0.643v0.029c0,0.59-0.575,0.999-1.726,1.229h-0.234c-1.053,0-1.814-0.517-2.282-1.55
				c-0.098-0.292-0.146-0.527-0.146-0.702c0-2.106,0.205-4.827,0.614-8.161c0.176-0.585,0.263-0.994,0.263-1.229
				c0-0.629-0.371-1.165-1.112-1.609c-0.278-0.117-0.522-0.176-0.731-0.176h-0.205c-0.785,0-1.37,0.468-1.755,1.404
				c-0.039,0.263-0.059,0.439-0.059,0.527c0,0.678,0.439,1.487,1.316,2.428c0.546,0.712,0.819,1.414,0.819,2.106v0.292
				c0,1.102-0.566,2.028-1.697,2.779c-0.556,0.273-1.053,0.41-1.492,0.41h-0.263c-1.141,0-2.067-0.546-2.779-1.638
				c-0.293-0.556-0.439-1.053-0.439-1.492v-0.38c0-0.566,0.175-1.141,0.527-1.726c0.848-0.956,1.687-1.433,2.516-1.433h0.205
				c0.098,0,0.146-0.019,0.146-0.059c-0.175-0.546-0.263-0.897-0.263-1.053v-0.41c0-1.18,0.585-2.116,1.755-2.808
				C314.495,132.109,315.021,131.983,315.509,131.983z M310.507,139.91v0.205c0,0.77,0.429,1.346,1.287,1.726
				c0.205,0.058,0.4,0.088,0.585,0.088c0.775,0,1.37-0.419,1.784-1.258c0.078-0.229,0.117-0.463,0.117-0.702
				c0-0.731-0.4-1.297-1.199-1.697c-0.224-0.078-0.419-0.117-0.585-0.117h-0.234c-0.741,0-1.297,0.419-1.667,1.258
				C310.536,139.569,310.507,139.734,310.507,139.91z"/>
			<path style="fill:#FFFFFF;" d="M358.303,174.325c0.407,0.086,0.613,0.318,0.618,0.697l-0.05,0.641
				c0.874-0.628,1.634-0.874,2.281-0.737c0.543,0.115,0.759,0.434,0.648,0.959l-1.145,5.426c0.314-0.009,0.566,0.006,0.755,0.046
				l0.054,0.012c0.71,0.15,1.119,0.718,1.227,1.704c0.027,0.407,0.011,0.753-0.049,1.038c-0.273,1.293-1.217,2.275-2.832,2.945
				c-0.127,0.021-0.2,0.052-0.219,0.096l-0.006,0.027c0.063,0.618,0.156,0.94,0.278,0.965c-0.007,0.032,0.117,0.115,0.372,0.249
				c0.182,0.213,0.252,0.417,0.211,0.611c-0.074,0.353-0.303,0.541-0.686,0.564l-0.217-0.046c-0.728-0.154-1.171-0.833-1.327-2.037
				c-1.394,0.159-2.208,0.214-2.444,0.165c-0.424-0.141-0.595-0.404-0.514-0.788l0.017-0.081c0.173-0.417,0.544-0.565,1.114-0.445
				c0.845-0.086,1.456-0.165,1.835-0.236l2.038-9.659c-0.526,0.253-0.984,0.591-1.376,1.013c-0.361,0.368-0.55,0.592-0.567,0.674
				l-1.483,7.027c-0.067,0.316-0.348,0.484-0.843,0.502c-0.298-0.063-0.466-0.344-0.502-0.843c0.015-0.072,0.032-0.107,0.05-0.103
				c0.039-0.275,0.072-0.476,0.099-0.603l1.168-5.535c0.144-0.683,0.326-1.589,0.545-2.719l-0.027-0.006
				c-0.651,0.378-1.2,0.829-1.646,1.353c-0.143,0.14-0.222,0.246-0.237,0.318l-1.483,7.027c-0.062,0.294-0.325,0.465-0.789,0.514
				c-0.432-0.19-0.612-0.455-0.541-0.794l1.54-7.299c0.116-0.552,0.068-1.488-0.145-2.808l0.023-0.109
				c0.066-0.312,0.323-0.456,0.772-0.432c0.398,0.084,0.651,0.676,0.759,1.775l0.027,0.006
				C356.606,174.515,357.503,174.156,358.303,174.325z M360.368,182.809l-0.578,2.74c0.82-0.394,1.302-0.934,1.447-1.622
				l0.017-0.081c0.149-0.706,0.061-1.093-0.265-1.161C360.786,182.642,360.578,182.683,360.368,182.809z"/>
			<path style="fill:#FFFFFF;" d="M373.076,157.423c0.341,0.119,0.497,0.385,0.469,0.799l-0.009,0.025
				c-0.229,0.381-0.507,0.515-0.831,0.402l-12.313-4.286c-0.197-0.069-0.321-0.268-0.372-0.6c0.015-0.096,0.033-0.173,0.053-0.231
				l0.009-0.025c0.11-0.317,0.387-0.423,0.831-0.32L373.076,157.423z M369.182,148.82l0.296,0.103
				c1.036,0.361,1.67,1.162,1.902,2.405c0.014,0.489-0.03,0.88-0.131,1.172l-0.137,0.395c-0.064,0.185-0.169,0.379-0.313,0.583
				c0.434,0.17,0.777,0.298,1.028,0.385l1.851,0.644c0.448,0.156,0.702,0.3,0.763,0.431c0.081,0.245,0.106,0.41,0.076,0.497
				l-0.009,0.025c-0.217,0.386-0.494,0.52-0.832,0.402l-4.318-1.503c-0.36-0.236-0.492-0.494-0.395-0.774l0.052-0.148
				c0.034-0.099,0.274-0.338,0.72-0.718c0.113-0.113,0.2-0.258,0.262-0.435l0.034-0.099c0.25-0.72-0.019-1.376-0.809-1.969
				c-0.134-0.065-0.247-0.113-0.337-0.145c-0.744-0.259-1.392-0.014-1.943,0.734c-0.038,0.056-0.069,0.119-0.093,0.189l-0.086,0.247
				c-0.072,0.206-0.055,0.635,0.049,1.29c0.011,0.073,0.005,0.145-0.019,0.215l-0.009,0.025c-0.123,0.354-0.417,0.482-0.881,0.385
				l-4.343-1.512c-0.132-0.046-0.254-0.199-0.366-0.459c0.011-0.19,0.023-0.305,0.038-0.346c0.197-0.355,0.42-0.49,0.666-0.404
				l3.43,1.194c0.033,0.012,0.055,0.001,0.066-0.032c0.034-0.362,0.064-0.582,0.091-0.66l0.154-0.444
				c0.166-0.477,0.569-0.945,1.208-1.405C367.652,148.647,368.43,148.558,369.182,148.82z"/>
			<path style="fill:#FFFFFF;" d="M308.059,174.008c0.512,0.125,0.68,0.547,0.504,1.267c0.843-0.557,1.613-0.751,2.31-0.581
				c0.491,0.21,0.691,0.5,0.601,0.869l-2.461,10.089c-0.114,0.775-0.14,1.17-0.078,1.185c0.312-0.064,0.489-0.091,0.532-0.081
				l0.114,0.028c0.327,0.08,0.718,0.657,1.173,1.731l-0.02,0.206c-0.098,0.403-0.47,0.733-1.115,0.992
				c-0.377,0.249-0.653,0.353-0.828,0.31c-0.346-0.084-0.543-0.303-0.593-0.656c0.007-0.109,0.018-0.196,0.034-0.263
				c0.01-0.043,0.029-0.078,0.056-0.107c0.014-0.057-0.139-0.255-0.457-0.593c-0.265-0.456-0.391-1.009-0.378-1.658
				c0.021-0.662,0.188-1.635,0.501-2.919l1.178-4.831c0.141-0.578,0.351-1.48,0.63-2.707c-1.165,0.745-1.796,1.313-1.892,1.706
				l-1.65,6.764c-0.072,0.294-0.359,0.444-0.863,0.452c-0.401-0.248-0.561-0.538-0.48-0.87c0.398-1.634,1.1-4.554,2.106-8.76
				c-0.701,0.366-1.302,0.852-1.801,1.458c-0.027,0.029-0.046,0.064-0.056,0.107l-1.67,6.849c-0.078,0.322-0.364,0.504-0.855,0.544
				l-0.029-0.007c-0.432-0.206-0.606-0.479-0.523-0.82l1.566-6.423c0.258-1.056,0.321-1.934,0.191-2.633
				c-0.061-0.492-0.072-0.816-0.034-0.972l0.014-0.057c0.076-0.313,0.34-0.449,0.792-0.409c0.436,0.106,0.663,0.613,0.683,1.521
				c0.034,0.109,0.06,0.165,0.079,0.17C306.381,174.121,307.287,173.82,308.059,174.008z"/>
			<path style="fill:#FFFFFF;" d="M353.293,206.689c0.264,0.377,0.312,0.69,0.144,0.941l-1.904,2.844
				c-0.187,0.279-0.463,0.376-0.828,0.29l-0.162-0.073l-0.049-0.033c-0.336-0.225-0.376-0.569-0.12-1.031l0.57-0.851l0.138-0.259
				l-4.684,1.369c0.244,0.862,0.327,1.351,0.248,1.469l-0.057,0.138c-0.187,0.28-0.501,0.363-0.941,0.25l-0.073-0.049
				c-0.198-0.133-0.392-0.58-0.581-1.34c-2.775,0.805-4.542,1.288-5.301,1.449c-0.138-0.022-0.265-0.06-0.381-0.114
				c-0.332-0.223-0.383-0.55-0.152-0.982l0.065-0.097c0.13-0.194,1.007-0.487,2.63-0.879c0.563-0.192,1.453-0.453,2.671-0.781
				l0.016-0.024c0.016-0.024-0.083-0.454-0.297-1.29c0.01-0.164,0.045-0.304,0.106-0.422c0.341-0.335,0.666-0.399,0.974-0.193
				c0.227,0.152,0.434,0.631,0.622,1.437l0.032,0.057l5.114-1.539l0.016-0.024l-1.555-1.042c-0.308-0.206-0.359-0.534-0.152-0.982
				l0.033-0.049c0.289-0.3,0.573-0.356,0.852-0.169l2.649,1.774C353.025,206.545,353.144,206.613,353.293,206.689z"/>
			<path style="fill:#FFFFFF;" d="M272.644,82.809c1.604,0,2.696,0.848,3.276,2.545c0.234,0.785,0.351,1.604,0.351,2.457v0.585
				c0,0.605-0.176,1.979-0.526,4.125c0.019,0.039,0.059,0.283,0.117,0.731h0.029c0.653-0.838,1.287-1.258,1.901-1.258h0.234
				c1.043,0,1.794,0.595,2.253,1.784l0.088,0.644c0,1.038-0.517,1.809-1.55,2.311c-0.312,0.117-0.634,0.175-0.965,0.175
				c-0.453,0-0.97-0.273-1.55-0.819h-0.029c-0.039,0.239-0.663,0.931-1.872,2.077c-0.473,0.351-0.814,0.526-1.024,0.526h-0.058
				c-0.429-0.083-0.644-0.297-0.644-0.644v-0.088c0-0.297,0.273-0.619,0.819-0.965c1.151-1.014,1.726-1.697,1.726-2.048
				c-0.336-0.395-0.561-0.785-0.673-1.17c-0.137-0.429-0.205-0.77-0.205-1.024v-0.351c0-0.097,0.136-0.936,0.41-2.516
				c0.059-0.507,0.088-0.916,0.088-1.229v-1.316c-0.098-0.819-0.263-1.521-0.497-2.106c-0.375-0.663-0.892-0.995-1.55-0.995h-0.322
				c-1.087,0-1.828,0.605-2.223,1.814c-0.136,0.488-0.205,1.024-0.205,1.609v0.117c0,0.215,0.185,1.58,0.556,4.095
				c0.039,0.263,0.059,0.546,0.059,0.848v1.989c0,0.907-0.137,1.453-0.41,1.638c-0.151,0.059-0.258,0.088-0.322,0.088h-0.146
				c-0.346,0-0.551-0.215-0.614-0.644c0-0.083,0.029-0.522,0.088-1.316v-1.141c0-1.199-0.331-3.364-0.994-6.494
				c-0.039-0.063-0.341-1.165-0.907-3.305c0-0.449,0.293-0.673,0.878-0.673c0.278,0,0.502,0.361,0.673,1.082
				c0.034,0,0.132,0.283,0.293,0.848c0.434-0.799,0.98-1.346,1.638-1.638C271.391,82.926,271.995,82.809,272.644,82.809z
				 M276.944,94.392c0.068,0.288,0.322,0.609,0.76,0.965c0.073,0.058,0.161,0.088,0.263,0.088h0.029
				c0.405,0,0.707-0.292,0.907-0.877v-0.205c-0.161-0.624-0.463-0.936-0.907-0.936h-0.029c-0.258,0-0.59,0.302-0.995,0.907
				L276.944,94.392z"/>
			<path style="fill:#FFFFFF;" d="M272.128,126.858c0.317,0.171,0.892,1.204,1.726,3.101c1.677-1.38,2.584-2.316,2.721-2.808
				c0.18-0.156,0.356-0.234,0.526-0.234h0.029c0.356,0,0.648,0.283,0.878,0.848c0.794,1.424,1.311,2.506,1.55,3.247v0.088
				c0,0.356-0.234,0.58-0.702,0.673c-0.371,0-0.692-0.332-0.965-0.995c-0.317-0.609-0.59-1.185-0.819-1.726h-0.029
				c-1.541,1.462-2.603,2.369-3.188,2.72c-0.015,0-0.093,0.01-0.234,0.029c-0.434,0-0.766-0.37-0.995-1.112
				c-0.166-0.219-0.429-0.736-0.79-1.55c-1.882,1.755-3.042,2.643-3.481,2.662h-0.029c-0.41,0-0.741-0.39-0.995-1.17
				c-0.088-0.054-0.341-0.551-0.761-1.492c-1.994,1.775-3.145,2.662-3.452,2.662c-0.468-0.078-0.702-0.312-0.702-0.702
				c0-0.312,0.293-0.673,0.878-1.082c0.804-0.609,1.584-1.311,2.34-2.106c0.171-0.166,0.307-0.41,0.409-0.731
				c0.166-0.156,0.351-0.234,0.556-0.234c0.385,0,0.678,0.302,0.878,0.907c0.078,0.117,0.458,0.839,1.141,2.165
				c0.868-0.668,1.697-1.428,2.486-2.282c0.063-0.565,0.288-0.848,0.673-0.848C271.88,126.868,271.997,126.858,272.128,126.858z
				 M272.07,132.182c0.2,0,0.57,0.556,1.111,1.667c0.332,0.746,0.566,1.224,0.702,1.433c0.639-0.449,1.419-1.17,2.34-2.165
				c0.283-0.585,0.556-0.878,0.819-0.878h0.088c0.38,0,0.731,0.4,1.053,1.199c0.916,1.706,1.375,2.681,1.375,2.925
				c0,0.312-0.137,0.536-0.41,0.673c-0.137,0.039-0.244,0.059-0.322,0.059c-0.341,0-0.624-0.273-0.848-0.819
				c-0.614-1.238-0.936-1.872-0.965-1.901c0,0.063-0.38,0.434-1.141,1.112c-1.248,1.092-1.95,1.638-2.106,1.638h-0.205
				c-0.376,0-0.697-0.38-0.965-1.141c-0.054-0.029-0.307-0.526-0.761-1.492h-0.029c-1.877,1.755-3.018,2.633-3.422,2.633h-0.088
				c-0.376,0-0.697-0.38-0.965-1.141c-0.054-0.029-0.307-0.526-0.761-1.492h-0.029c-1.945,1.755-3.096,2.633-3.452,2.633
				c-0.375,0-0.6-0.234-0.673-0.702c0-0.288,0.273-0.629,0.819-1.024c0.98-0.751,1.828-1.521,2.545-2.311l0.322-0.614
				c0.195-0.136,0.371-0.205,0.527-0.205c0.219,0,0.424,0.127,0.614,0.38c0.57,1.185,1.038,2.082,1.404,2.691
				c0.868-0.687,1.687-1.448,2.457-2.282c0.088-0.488,0.205-0.731,0.351-0.731C271.485,132.265,271.69,132.216,272.07,132.182z"/>
			<path style="fill:#FFFFFF;" d="M263.314,166.834h0.205c1.068,0,1.799,1.307,2.194,3.92c0.059,0.746,0.088,1.185,0.088,1.316
				l0.059,0.029h2.954c0.039,0,0.059-0.02,0.059-0.059v-0.117c0-1.828,0.38-3.31,1.141-4.446c0.366-0.429,0.746-0.644,1.141-0.644
				h0.205c0.317,0,0.512,0.205,0.585,0.614v0.234c0,0.185-0.176,0.361-0.526,0.526c-0.6,0.205-0.97,1.346-1.112,3.422v2.194
				c0,1.78,0.37,3.427,1.112,4.943c0.351,0.483,0.526,0.775,0.526,0.878v0.234c0,0.273-0.215,0.458-0.643,0.556h-0.176
				c-0.507,0-1.073-0.955-1.697-2.867c-0.371-1.428-0.556-2.784-0.556-4.066H265.8v0.205c0,1.268-0.263,2.75-0.79,4.446
				c-0.57,1.521-1.077,2.282-1.521,2.282h-0.175c-0.39-0.092-0.585-0.278-0.585-0.556v-0.234c0-0.127,0.185-0.468,0.556-1.024
				c0.351-0.707,0.624-1.545,0.819-2.516c0.175-0.951,0.263-1.692,0.263-2.223v-2.399c-0.156-1.55-0.37-2.457-0.643-2.72
				c-0.239-0.429-0.473-0.643-0.702-0.643c-0.195-0.19-0.293-0.327-0.293-0.41v-0.293
				C262.807,167.029,263.002,166.834,263.314,166.834z"/>
			<path style="fill:none;stroke:#FFFFFF;stroke-miterlimit:10;" d="M257.279,364.432c0,0,10.078,11.198,22.396-1.12"/>
			<line style="fill:none;stroke:#FFFFFF;stroke-miterlimit:10;" x1="268.476" y1="363.312" x2="268.476" y2="377.869"/>
			
				<ellipse transform="matrix(0.163 -0.9866 0.9866 0.163 -121.117 465.1522)" style="fill:none;stroke:#FFFFFF;stroke-miterlimit:10;" cx="213.607" cy="303.964" rx="11.758" ry="11.758"/>
			<line style="fill:none;stroke:#FFFFFF;stroke-miterlimit:10;" x1="213.607" y1="315.162" x2="213.607" y2="333.078"/>
			<line style="fill:none;stroke:#FFFFFF;stroke-miterlimit:10;" x1="208.008" y1="325.24" x2="219.206" y2="325.24"/>
			<path style="fill:none;stroke:#FFFFFF;stroke-linecap:round;stroke-linejoin:round;stroke-miterlimit:10;" d="M186.764,271.344
				c-6.092-2.437-7.31,6.701-7.31,6.701s-1.218-9.138-7.31-6.701c-6.092,2.437-2.437,15.23,7.31,20.103
				C189.201,286.573,192.856,273.78,186.764,271.344z"/>
		</g>
	</g>
	<g>
		<path style="fill:#2A2768;" d="M99.479,237.455c0,0,5.746-0.442,5.746-7.956c0,0,1.326,7.956,7.514,7.956
			c0,0-5.746,1.768-6.63,8.84C106.109,246.296,105.225,238.339,99.479,237.455z"/>
		<path style="fill:#2A2768;" d="M351.428,95.244c0,0,5.746-0.442,5.746-7.956c0,0,1.326,7.956,7.514,7.956
			c0,0-5.746,1.768-6.63,8.84C358.058,104.084,357.174,96.128,351.428,95.244z"/>
		<path style="fill:#2A2768;" d="M424.213,257.611c0,0,5.746-0.442,5.746-7.956c0,0,1.326,7.956,7.514,7.956
			c0,0-5.746,1.768-6.63,8.84C430.843,266.452,429.959,258.495,424.213,257.611z"/>
		<path style="fill:#2A2768;" d="M75.964,295.683c0,0,5.746-0.442,5.746-7.956c0,0,1.326,7.956,7.514,7.956
			c0,0-5.746,1.768-6.63,8.84C82.594,304.524,81.71,296.567,75.964,295.683z"/>
	</g>
</g>
</svg>
