<svg xmlns="http://www.w3.org/2000/svg" xml:space="preserve" xmlns:xlink="http://www.w3.org/1999/xlink" style="max-width: 100%;height: auto;" width="1005.3333333333" height="1047.2222222222" viewBox="0 0 1005.3333333333 1047.2222222222">
<g transform="scale(41.888888888889)" fill="#fff"></g>
<g fill="#5362ae">
<g transform="translate(294.66666666667,38.666666666667) scale(5.4933333333333)"><path d="M6,6H0V3c0-1.7,1.3-3,3-3l3,0V6z"/></g>
<g transform="translate(326.66666666667,38.666666666667) scale(5.4933333333333)"><path d="M6,6H0V0l3,0c1.7,0,3,1.3,3,3V6z"/></g>
<g transform="translate(390.66666666667,38.666666666667) scale(5.4933333333333)"><path d="M4.7,0.4c-1.1,0.4-2.4,0.4-3.5,0L0,0c0,3.3,2.7,6,6,6V0L4.7,0.4z"/></g>
<g transform="translate(422.66666666667,38.666666666667) scale(5.4933333333333)"><path d="M6,6H0V0l3,0c1.7,0,3,1.3,3,3V6z"/></g>
<g transform="translate(486.66666666667,38.666666666667) scale(5.4933333333333)"><path d="M6,6H0v0c0-3.3,2.7-6,6-6h0L5.6,1.3c-0.4,1.1-0.4,2.4,0,3.5L6,6z"/></g>
<g transform="translate(582.66666666667,38.666666666667) scale(5.4933333333333)"><path d="M6,6H0V3c0-1.7,1.3-3,3-3l3,0V6z"/></g>
<g transform="translate(614.66666666667,38.666666666667) scale(5.4933333333333)"><path d="M0,0v6l1.3-0.4c1.1-0.4,2.4-0.4,3.5,0L6,6C6,2.7,3.3,0,0,0z"/></g>
<g transform="translate(294.66666666667,70.666666666667) scale(5.4933333333333)"><rect width="6" height="6"/></g>
<g transform="translate(326.66666666667,70.666666666667) scale(5.4933333333333)"><rect width="6" height="6"/></g>
<g transform="translate(358.66666666667,70.666666666667) scale(5.4933333333333)"><path d="M0,0v6l1.3-0.4c1.1-0.4,2.4-0.4,3.5,0L6,6C6,2.7,3.3,0,0,0z"/></g>
<g transform="translate(422.66666666667,70.666666666667) scale(5.4933333333333)"><rect width="6" height="6"/></g>
<g transform="translate(486.66666666667,70.666666666667) scale(5.4933333333333)"><rect width="6" height="6"/></g>
<g transform="translate(582.66666666667,70.666666666667) scale(5.4933333333333)"><path d="M0,0l0.4,1.3c0.4,1.1,0.4,2.4,0,3.5L0,6c3.3,0,6-2.7,6-6H0z"/></g>
<g transform="translate(294.66666666667,102.66666666667) scale(5.4933333333333)"><path d="M0,0l0.4,1.3c0.4,1.1,0.4,2.4,0,3.5L0,6c3.3,0,6-2.7,6-6H0z"/></g>
<g transform="translate(390.66666666667,102.66666666667) scale(5.4933333333333)"><path d="M6,6H0V3c0-1.7,1.3-3,3-3l3,0V6z"/></g>
<g transform="translate(422.66666666667,102.66666666667) scale(5.4933333333333)"><rect width="6" height="6"/></g>
<g transform="translate(454.66666666667,102.66666666667) scale(5.4933333333333)"><rect width="6" height="6"/></g>
<g transform="translate(486.66666666667,102.66666666667) scale(5.4933333333333)"><path d="M3,6H0V0l6,0v3C6,4.7,4.7,6,3,6z"/></g>
<g transform="translate(550.66666666667,102.66666666667) scale(5.4933333333333)"><path d="M6,6H0v0c0-3.3,2.7-6,6-6h0L5.6,1.3c-0.4,1.1-0.4,2.4,0,3.5L6,6z"/></g>
<g transform="translate(614.66666666667,102.66666666667) scale(5.4933333333333)"><circle cx="3" cy="3" r="3"/></g>
<g transform="translate(358.66666666667,134.66666666667) scale(5.4933333333333)"><path d="M6,6H0V3c0-1.7,1.3-3,3-3l3,0V6z"/></g>
<g transform="translate(390.66666666667,134.66666666667) scale(5.4933333333333)"><rect width="6" height="6"/></g>
<g transform="translate(454.66666666667,134.66666666667) scale(5.4933333333333)"><rect width="6" height="6"/></g>
<g transform="translate(518.66666666667,134.66666666667) scale(5.4933333333333)"><path d="M4.7,0.4c-1.1,0.4-2.4,0.4-3.5,0L0,0c0,3.3,2.7,6,6,6V0L4.7,0.4z"/></g>
<g transform="translate(550.66666666667,134.66666666667) scale(5.4933333333333)"><rect width="6" height="6"/></g>
<g transform="translate(582.66666666667,134.66666666667) scale(5.4933333333333)"><path d="M6,6H0V0l3,0c1.7,0,3,1.3,3,3V6z"/></g>
<g transform="translate(646.66666666667,134.66666666667) scale(5.4933333333333)"><path d="M6,6H0v0c0-3.3,2.7-6,6-6h0L5.6,1.3c-0.4,1.1-0.4,2.4,0,3.5L6,6z"/></g>
<g transform="translate(326.66666666667,166.66666666667) scale(5.4933333333333)"><path d="M4.7,0.4c-1.1,0.4-2.4,0.4-3.5,0L0,0c0,3.3,2.7,6,6,6V0L4.7,0.4z"/></g>
<g transform="translate(358.66666666667,166.66666666667) scale(5.4933333333333)"><rect width="6" height="6"/></g>
<g transform="translate(390.66666666667,166.66666666667) scale(5.4933333333333)"><path d="M3,6H0V0l6,0v3C6,4.7,4.7,6,3,6z"/></g>
<g transform="translate(454.66666666667,166.66666666667) scale(5.4933333333333)"><rect width="6" height="6"/></g>
<g transform="translate(486.66666666667,166.66666666667) scale(5.4933333333333)"><path d="M6,6H0V0l3,0c1.7,0,3,1.3,3,3V6z"/></g>
<g transform="translate(582.66666666667,166.66666666667) scale(5.4933333333333)"><rect width="6" height="6"/></g>
<g transform="translate(614.66666666667,166.66666666667) scale(5.4933333333333)"><rect width="6" height="6"/></g>
<g transform="translate(646.66666666667,166.66666666667) scale(5.4933333333333)"><path d="M3,6H0V0l6,0v3C6,4.7,4.7,6,3,6z"/></g>
<g transform="translate(294.66666666667,198.66666666667) scale(5.4933333333333)"><path d="M6,6H0v0c0-3.3,2.7-6,6-6h0L5.6,1.3c-0.4,1.1-0.4,2.4,0,3.5L6,6z"/></g>
<g transform="translate(358.66666666667,198.66666666667) scale(5.4933333333333)"><rect width="6" height="6"/></g>
<g transform="translate(454.66666666667,198.66666666667) scale(5.4933333333333)"><path d="M6,6H3C1.3,6,0,4.7,0,3V0l6,0V6z"/></g>
<g transform="translate(486.66666666667,198.66666666667) scale(5.4933333333333)"><rect width="6" height="6"/></g>
<g transform="translate(550.66666666667,198.66666666667) scale(5.4933333333333)"><path d="M6,6H0V3c0-1.7,1.3-3,3-3l3,0V6z"/></g>
<g transform="translate(582.66666666667,198.66666666667) scale(5.4933333333333)"><path d="M3,6H0V0l6,0v3C6,4.7,4.7,6,3,6z"/></g>
<g transform="translate(294.66666666667,230.66666666667) scale(5.4933333333333)"><rect width="6" height="6"/></g>
<g transform="translate(358.66666666667,230.66666666667) scale(5.4933333333333)"><rect width="6" height="6"/></g>
<g transform="translate(422.66666666667,230.66666666667) scale(5.4933333333333)"><circle cx="3" cy="3" r="3"/></g>
<g transform="translate(486.66666666667,230.66666666667) scale(5.4933333333333)"><rect width="6" height="6"/></g>
<g transform="translate(550.66666666667,230.66666666667) scale(5.4933333333333)"><rect width="6" height="6"/></g>
<g transform="translate(614.66666666667,230.66666666667) scale(5.4933333333333)"><path d="M6,6H0v0c0-3.3,2.7-6,6-6h0L5.6,1.3c-0.4,1.1-0.4,2.4,0,3.5L6,6z"/></g>
<g transform="translate(678.66666666667,230.66666666667) scale(5.4933333333333)"><circle cx="3" cy="3" r="3"/></g>
<g transform="translate(294.66666666667,262.66666666667) scale(5.4933333333333)"><rect width="6" height="6"/></g>
<g transform="translate(326.66666666667,262.66666666667) scale(5.4933333333333)"><rect width="6" height="6"/></g>
<g transform="translate(358.66666666667,262.66666666667) scale(5.4933333333333)"><rect width="6" height="6"/></g>
<g transform="translate(486.66666666667,262.66666666667) scale(5.4933333333333)"><rect width="6" height="6"/></g>
<g transform="translate(550.66666666667,262.66666666667) scale(5.4933333333333)"><rect width="6" height="6"/></g>
<g transform="translate(582.66666666667,262.66666666667) scale(5.4933333333333)"><rect width="6" height="6"/></g>
<g transform="translate(614.66666666667,262.66666666667) scale(5.4933333333333)"><rect width="6" height="6"/></g>
<g transform="translate(646.66666666667,262.66666666667) scale(5.4933333333333)"><path d="M0,0v6l1.3-0.4c1.1-0.4,2.4-0.4,3.5,0L6,6C6,2.7,3.3,0,0,0z"/></g>
<g transform="translate(102.66666666667,294.66666666667) scale(5.4933333333333)"><path d="M4.7,0.4c-1.1,0.4-2.4,0.4-3.5,0L0,0c0,3.3,2.7,6,6,6V0L4.7,0.4z"/></g>
<g transform="translate(134.66666666667,294.66666666667) scale(5.4933333333333)"><rect width="6" height="6"/></g>
<g transform="translate(166.66666666667,294.66666666667) scale(5.4933333333333)"><path d="M0,0v6l1.3-0.4c1.1-0.4,2.4-0.4,3.5,0L6,6C6,2.7,3.3,0,0,0z"/></g>
<g transform="translate(230.66666666667,294.66666666667) scale(5.4933333333333)"><circle cx="3" cy="3" r="3"/></g>
<g transform="translate(294.66666666667,294.66666666667) scale(5.4933333333333)"><rect width="6" height="6"/></g>
<g transform="translate(358.66666666667,294.66666666667) scale(5.4933333333333)"><rect width="6" height="6"/></g>
<g transform="translate(390.66666666667,294.66666666667) scale(5.4933333333333)"><rect width="6" height="6"/></g>
<g transform="translate(422.66666666667,294.66666666667) scale(5.4933333333333)"><rect width="6" height="6"/></g>
<g transform="translate(454.66666666667,294.66666666667) scale(5.4933333333333)"><rect width="6" height="6"/></g>
<g transform="translate(486.66666666667,294.66666666667) scale(5.4933333333333)"><rect width="6" height="6"/></g>
<g transform="translate(550.66666666667,294.66666666667) scale(5.4933333333333)"><rect width="6" height="6"/></g>
<g transform="translate(678.66666666667,294.66666666667) scale(5.4933333333333)"><path d="M6,6H0V3c0-1.7,1.3-3,3-3l3,0V6z"/></g>
<g transform="translate(710.66666666667,294.66666666667) scale(5.4933333333333)"><rect width="6" height="6"/></g>
<g transform="translate(742.66666666667,294.66666666667) scale(5.4933333333333)"><rect width="6" height="6"/></g>
<g transform="translate(774.66666666667,294.66666666667) scale(5.4933333333333)"><path d="M6,6H0V0l3,0c1.7,0,3,1.3,3,3V6z"/></g>
<g transform="translate(870.66666666667,294.66666666667) scale(5.4933333333333)"><path d="M4.7,0.4c-1.1,0.4-2.4,0.4-3.5,0L0,0c0,3.3,2.7,6,6,6V0L4.7,0.4z"/></g>
<g transform="translate(902.66666666667,294.66666666667) scale(5.4933333333333)"><rect width="6" height="6"/></g>
<g transform="translate(934.66666666667,294.66666666667) scale(5.4933333333333)"><path d="M6,6H0V0l3,0c1.7,0,3,1.3,3,3V6z"/></g>
<g transform="translate(38.666666666667,326.66666666667) scale(5.4933333333333)"><path d="M6,6H0V3c0-1.7,1.3-3,3-3l3,0V6z"/></g>
<g transform="translate(70.666666666667,326.66666666667) scale(5.4933333333333)"><path d="M6,6H0V0l3,0c1.7,0,3,1.3,3,3V6z"/></g>
<g transform="translate(262.66666666667,326.66666666667) scale(5.4933333333333)"><path d="M4.7,0.4c-1.1,0.4-2.4,0.4-3.5,0L0,0c0,3.3,2.7,6,6,6V0L4.7,0.4z"/></g>
<g transform="translate(294.66666666667,326.66666666667) scale(5.4933333333333)"><rect width="6" height="6"/></g>
<g transform="translate(358.66666666667,326.66666666667) scale(5.4933333333333)"><rect width="6" height="6"/></g>
<g transform="translate(390.66666666667,326.66666666667) scale(5.4933333333333)"><rect width="6" height="6"/></g>
<g transform="translate(486.66666666667,326.66666666667) scale(5.4933333333333)"><path d="M0,0l0.4,1.3c0.4,1.1,0.4,2.4,0,3.5L0,6c3.3,0,6-2.7,6-6H0z"/></g>
<g transform="translate(550.66666666667,326.66666666667) scale(5.4933333333333)"><rect width="6" height="6"/></g>
<g transform="translate(614.66666666667,326.66666666667) scale(5.4933333333333)"><path d="M6,6H0v0c0-3.3,2.7-6,6-6h0L5.6,1.3c-0.4,1.1-0.4,2.4,0,3.5L6,6z"/></g>
<g transform="translate(678.66666666667,326.66666666667) scale(5.4933333333333)"><rect width="6" height="6"/></g>
<g transform="translate(710.66666666667,326.66666666667) scale(5.4933333333333)"><rect width="6" height="6"/></g>
<g transform="translate(774.66666666667,326.66666666667) scale(5.4933333333333)"><rect width="6" height="6"/></g>
<g transform="translate(806.66666666667,326.66666666667) scale(5.4933333333333)"><rect width="6" height="6"/></g>
<g transform="translate(838.66666666667,326.66666666667) scale(5.4933333333333)"><path d="M0,0v6l1.3-0.4c1.1-0.4,2.4-0.4,3.5,0L6,6C6,2.7,3.3,0,0,0z"/></g>
<g transform="translate(934.66666666667,326.66666666667) scale(5.4933333333333)"><path d="M0,0l0.4,1.3c0.4,1.1,0.4,2.4,0,3.5L0,6c3.3,0,6-2.7,6-6H0z"/></g>
<g transform="translate(38.666666666667,358.66666666667) scale(5.4933333333333)"><path d="M6,6H3C1.3,6,0,4.7,0,3V0l6,0V6z"/></g>
<g transform="translate(70.666666666667,358.66666666667) scale(5.4933333333333)"><rect width="6" height="6"/></g>
<g transform="translate(102.66666666667,358.66666666667) scale(5.4933333333333)"><path d="M0,0v6l1.3-0.4c1.1-0.4,2.4-0.4,3.5,0L6,6C6,2.7,3.3,0,0,0z"/></g>
<g transform="translate(198.66666666667,358.66666666667) scale(5.4933333333333)"><path d="M4.7,0.4c-1.1,0.4-2.4,0.4-3.5,0L0,0c0,3.3,2.7,6,6,6V0L4.7,0.4z"/></g>
<g transform="translate(230.66666666667,358.66666666667) scale(5.4933333333333)"><path d="M0,0v6l1.3-0.4c1.1-0.4,2.4-0.4,3.5,0L6,6C6,2.7,3.3,0,0,0z"/></g>
<g transform="translate(294.66666666667,358.66666666667) scale(5.4933333333333)"><rect width="6" height="6"/></g>
<g transform="translate(326.66666666667,358.66666666667) scale(5.4933333333333)"><rect width="6" height="6"/></g>
<g transform="translate(358.66666666667,358.66666666667) scale(5.4933333333333)"><rect width="6" height="6"/></g>
<g transform="translate(390.66666666667,358.66666666667) scale(5.4933333333333)"><rect width="6" height="6"/></g>
<g transform="translate(422.66666666667,358.66666666667) scale(5.4933333333333)"><path d="M0,0v6l1.3-0.4c1.1-0.4,2.4-0.4,3.5,0L6,6C6,2.7,3.3,0,0,0z"/></g>
<g transform="translate(550.66666666667,358.66666666667) scale(5.4933333333333)"><path d="M6,6H3C1.3,6,0,4.7,0,3V0l6,0V6z"/></g>
<g transform="translate(582.66666666667,358.66666666667) scale(5.4933333333333)"><rect width="6" height="6"/></g>
<g transform="translate(614.66666666667,358.66666666667) scale(5.4933333333333)"><rect width="6" height="6"/></g>
<g transform="translate(678.66666666667,358.66666666667) scale(5.4933333333333)"><path d="M6,6H3C1.3,6,0,4.7,0,3V0l6,0V6z"/></g>
<g transform="translate(710.66666666667,358.66666666667) scale(5.4933333333333)"><rect width="6" height="6"/></g>
<g transform="translate(742.66666666667,358.66666666667) scale(5.4933333333333)"><rect width="6" height="6"/></g>
<g transform="translate(774.66666666667,358.66666666667) scale(5.4933333333333)"><rect width="6" height="6"/></g>
<g transform="translate(806.66666666667,358.66666666667) scale(5.4933333333333)"><rect width="6" height="6"/></g>
<g transform="translate(166.66666666667,390.66666666667) scale(5.4933333333333)"><path d="M6,6H0v0c0-3.3,2.7-6,6-6h0L5.6,1.3c-0.4,1.1-0.4,2.4,0,3.5L6,6z"/></g>
<g transform="translate(262.66666666667,390.66666666667) scale(5.4933333333333)"><path d="M6,6H0V3c0-1.7,1.3-3,3-3l3,0V6z"/></g>
<g transform="translate(294.66666666667,390.66666666667) scale(5.4933333333333)"><rect width="6" height="6"/></g>
<g transform="translate(326.66666666667,390.66666666667) scale(5.4933333333333)"><rect width="6" height="6"/></g>
<g transform="translate(358.66666666667,390.66666666667) scale(5.4933333333333)"><rect width="6" height="6"/></g>
<g transform="translate(390.66666666667,390.66666666667) scale(5.4933333333333)"><rect width="6" height="6"/></g>
<g transform="translate(454.66666666667,390.66666666667) scale(5.4933333333333)"><circle cx="3" cy="3" r="3"/></g>
<g transform="translate(582.66666666667,390.66666666667) scale(5.4933333333333)"><path d="M6,6H3C1.3,6,0,4.7,0,3V0l6,0V6z"/></g>
<g transform="translate(614.66666666667,390.66666666667) scale(5.4933333333333)"><rect width="6" height="6"/></g>
<g transform="translate(646.66666666667,390.66666666667) scale(5.4933333333333)"><path d="M0,0v6l1.3-0.4c1.1-0.4,2.4-0.4,3.5,0L6,6C6,2.7,3.3,0,0,0z"/></g>
<g transform="translate(710.66666666667,390.66666666667) scale(5.4933333333333)"><rect width="6" height="6"/></g>
<g transform="translate(742.66666666667,390.66666666667) scale(5.4933333333333)"><rect width="6" height="6"/></g>
<g transform="translate(774.66666666667,390.66666666667) scale(5.4933333333333)"><rect width="6" height="6"/></g>
<g transform="translate(806.66666666667,390.66666666667) scale(5.4933333333333)"><rect width="6" height="6"/></g>
<g transform="translate(838.66666666667,390.66666666667) scale(5.4933333333333)"><path d="M0,0v6l1.3-0.4c1.1-0.4,2.4-0.4,3.5,0L6,6C6,2.7,3.3,0,0,0z"/></g>
<g transform="translate(902.66666666667,390.66666666667) scale(5.4933333333333)"><path d="M6,6H0v0c0-3.3,2.7-6,6-6h0L5.6,1.3c-0.4,1.1-0.4,2.4,0,3.5L6,6z"/></g>
<g transform="translate(70.666666666667,422.66666666667) scale(5.4933333333333)"><path d="M6,6H0v0c0-3.3,2.7-6,6-6h0L5.6,1.3c-0.4,1.1-0.4,2.4,0,3.5L6,6z"/></g>
<g transform="translate(134.66666666667,422.66666666667) scale(5.4933333333333)"><path d="M6,6H0V3c0-1.7,1.3-3,3-3l3,0V6z"/></g>
<g transform="translate(166.66666666667,422.66666666667) scale(5.4933333333333)"><rect width="6" height="6"/></g>
<g transform="translate(198.66666666667,422.66666666667) scale(5.4933333333333)"><rect width="6" height="6"/></g>
<g transform="translate(230.66666666667,422.66666666667) scale(5.4933333333333)"><rect width="6" height="6"/></g>
<g transform="translate(262.66666666667,422.66666666667) scale(5.4933333333333)"><rect width="6" height="6"/></g>
<g transform="translate(390.66666666667,422.66666666667) scale(5.4933333333333)"><path d="M0,0l0.4,1.3c0.4,1.1,0.4,2.4,0,3.5L0,6c3.3,0,6-2.7,6-6H0z"/></g>
<g transform="translate(486.66666666667,422.66666666667) scale(5.4933333333333)"><path d="M6,6H0V3c0-1.7,1.3-3,3-3l3,0V6z"/></g>
<g transform="translate(518.66666666667,422.66666666667) scale(5.4933333333333)"><path d="M6,6H0V0l3,0c1.7,0,3,1.3,3,3V6z"/></g>
<g transform="translate(614.66666666667,422.66666666667) scale(5.4933333333333)"><rect width="6" height="6"/></g>
<g transform="translate(678.66666666667,422.66666666667) scale(5.4933333333333)"><path d="M6,6H0V3c0-1.7,1.3-3,3-3l3,0V6z"/></g>
<g transform="translate(710.66666666667,422.66666666667) scale(5.4933333333333)"><rect width="6" height="6"/></g>
<g transform="translate(774.66666666667,422.66666666667) scale(5.4933333333333)"><path d="M0,0l0.4,1.3c0.4,1.1,0.4,2.4,0,3.5L0,6c3.3,0,6-2.7,6-6H0z"/></g>
<g transform="translate(870.66666666667,422.66666666667) scale(5.4933333333333)"><path d="M4.7,0.4c-1.1,0.4-2.4,0.4-3.5,0L0,0c0,3.3,2.7,6,6,6V0L4.7,0.4z"/></g>
<g transform="translate(902.66666666667,422.66666666667) scale(5.4933333333333)"><rect width="6" height="6"/></g>
<g transform="translate(934.66666666667,422.66666666667) scale(5.4933333333333)"><path d="M6,6H0V0l3,0c1.7,0,3,1.3,3,3V6z"/></g>
<g transform="translate(38.666666666667,454.66666666667) scale(5.4933333333333)"><path d="M4.7,0.4c-1.1,0.4-2.4,0.4-3.5,0L0,0c0,3.3,2.7,6,6,6V0L4.7,0.4z"/></g>
<g transform="translate(70.666666666667,454.66666666667) scale(5.4933333333333)"><rect width="6" height="6"/></g>
<g transform="translate(102.66666666667,454.66666666667) scale(5.4933333333333)"><rect width="6" height="6"/></g>
<g transform="translate(134.66666666667,454.66666666667) scale(5.4933333333333)"><rect width="6" height="6"/></g>
<g transform="translate(166.66666666667,454.66666666667) scale(5.4933333333333)"><rect width="6" height="6"/></g>
<g transform="translate(198.66666666667,454.66666666667) scale(5.4933333333333)"><rect width="6" height="6"/></g>
<g transform="translate(262.66666666667,454.66666666667) scale(5.4933333333333)"><rect width="6" height="6"/></g>
<g transform="translate(358.66666666667,454.66666666667) scale(5.4933333333333)"><path d="M6,6H0v0c0-3.3,2.7-6,6-6h0L5.6,1.3c-0.4,1.1-0.4,2.4,0,3.5L6,6z"/></g>
<g transform="translate(486.66666666667,454.66666666667) scale(5.4933333333333)"><rect width="6" height="6"/></g>
<g transform="translate(518.66666666667,454.66666666667) scale(5.4933333333333)"><path d="M3,6H0V0l6,0v3C6,4.7,4.7,6,3,6z"/></g>
<g transform="translate(614.66666666667,454.66666666667) scale(5.4933333333333)"><rect width="6" height="6"/></g>
<g transform="translate(646.66666666667,454.66666666667) scale(5.4933333333333)"><rect width="6" height="6"/></g>
<g transform="translate(678.66666666667,454.66666666667) scale(5.4933333333333)"><rect width="6" height="6"/></g>
<g transform="translate(710.66666666667,454.66666666667) scale(5.4933333333333)"><rect width="6" height="6"/></g>
<g transform="translate(742.66666666667,454.66666666667) scale(5.4933333333333)"><path d="M6,6H0V0l3,0c1.7,0,3,1.3,3,3V6z"/></g>
<g transform="translate(806.66666666667,454.66666666667) scale(5.4933333333333)"><path d="M4.7,0.4c-1.1,0.4-2.4,0.4-3.5,0L0,0c0,3.3,2.7,6,6,6V0L4.7,0.4z"/></g>
<g transform="translate(838.66666666667,454.66666666667) scale(5.4933333333333)"><path d="M0,0v6l1.3-0.4c1.1-0.4,2.4-0.4,3.5,0L6,6C6,2.7,3.3,0,0,0z"/></g>
<g transform="translate(902.66666666667,454.66666666667) scale(5.4933333333333)"><path d="M6,6H3C1.3,6,0,4.7,0,3V0l6,0V6z"/></g>
<g transform="translate(934.66666666667,454.66666666667) scale(5.4933333333333)"><path d="M3,6H0V0l6,0v3C6,4.7,4.7,6,3,6z"/></g>
<g transform="translate(166.66666666667,486.66666666667) scale(5.4933333333333)"><rect width="6" height="6"/></g>
<g transform="translate(198.66666666667,486.66666666667) scale(5.4933333333333)"><rect width="6" height="6"/></g>
<g transform="translate(230.66666666667,486.66666666667) scale(5.4933333333333)"><rect width="6" height="6"/></g>
<g transform="translate(262.66666666667,486.66666666667) scale(5.4933333333333)"><path d="M3,6H0V0l6,0v3C6,4.7,4.7,6,3,6z"/></g>
<g transform="translate(358.66666666667,486.66666666667) scale(5.4933333333333)"><path d="M6,6H3C1.3,6,0,4.7,0,3V0l6,0V6z"/></g>
<g transform="translate(390.66666666667,486.66666666667) scale(5.4933333333333)"><rect width="6" height="6"/></g>
<g transform="translate(422.66666666667,486.66666666667) scale(5.4933333333333)"><rect width="6" height="6"/></g>
<g transform="translate(454.66666666667,486.66666666667) scale(5.4933333333333)"><rect width="6" height="6"/></g>
<g transform="translate(486.66666666667,486.66666666667) scale(5.4933333333333)"><path d="M3,6H0V0l6,0v3C6,4.7,4.7,6,3,6z"/></g>
<g transform="translate(550.66666666667,486.66666666667) scale(5.4933333333333)"><path d="M6,6H0v0c0-3.3,2.7-6,6-6h0L5.6,1.3c-0.4,1.1-0.4,2.4,0,3.5L6,6z"/></g>
<g transform="translate(614.66666666667,486.66666666667) scale(5.4933333333333)"><path d="M0,0l0.4,1.3c0.4,1.1,0.4,2.4,0,3.5L0,6c3.3,0,6-2.7,6-6H0z"/></g>
<g transform="translate(678.66666666667,486.66666666667) scale(5.4933333333333)"><path d="M6,6H3C1.3,6,0,4.7,0,3V0l6,0V6z"/></g>
<g transform="translate(710.66666666667,486.66666666667) scale(5.4933333333333)"><rect width="6" height="6"/></g>
<g transform="translate(742.66666666667,486.66666666667) scale(5.4933333333333)"><rect width="6" height="6"/></g>
<g transform="translate(774.66666666667,486.66666666667) scale(5.4933333333333)"><path d="M0,0v6l1.3-0.4c1.1-0.4,2.4-0.4,3.5,0L6,6C6,2.7,3.3,0,0,0z"/></g>
<g transform="translate(38.666666666667,518.66666666667) scale(5.4933333333333)"><path d="M4.7,0.4c-1.1,0.4-2.4,0.4-3.5,0L0,0c0,3.3,2.7,6,6,6V0L4.7,0.4z"/></g>
<g transform="translate(70.666666666667,518.66666666667) scale(5.4933333333333)"><rect width="6" height="6"/></g>
<g transform="translate(102.66666666667,518.66666666667) scale(5.4933333333333)"><path d="M0,0v6l1.3-0.4c1.1-0.4,2.4-0.4,3.5,0L6,6C6,2.7,3.3,0,0,0z"/></g>
<g transform="translate(166.66666666667,518.66666666667) scale(5.4933333333333)"><rect width="6" height="6"/></g>
<g transform="translate(294.66666666667,518.66666666667) scale(5.4933333333333)"><path d="M4.7,0.4c-1.1,0.4-2.4,0.4-3.5,0L0,0c0,3.3,2.7,6,6,6V0L4.7,0.4z"/></g>
<g transform="translate(326.66666666667,518.66666666667) scale(5.4933333333333)"><path d="M6,6H0V0l3,0c1.7,0,3,1.3,3,3V6z"/></g>
<g transform="translate(454.66666666667,518.66666666667) scale(5.4933333333333)"><rect width="6" height="6"/></g>
<g transform="translate(518.66666666667,518.66666666667) scale(5.4933333333333)"><path d="M4.7,0.4c-1.1,0.4-2.4,0.4-3.5,0L0,0c0,3.3,2.7,6,6,6V0L4.7,0.4z"/></g>
<g transform="translate(550.66666666667,518.66666666667) scale(5.4933333333333)"><rect width="6" height="6"/></g>
<g transform="translate(582.66666666667,518.66666666667) scale(5.4933333333333)"><path d="M0,0v6l1.3-0.4c1.1-0.4,2.4-0.4,3.5,0L6,6C6,2.7,3.3,0,0,0z"/></g>
<g transform="translate(710.66666666667,518.66666666667) scale(5.4933333333333)"><path d="M6,6H3C1.3,6,0,4.7,0,3V0l6,0V6z"/></g>
<g transform="translate(742.66666666667,518.66666666667) scale(5.4933333333333)"><path d="M3,6H0V0l6,0v3C6,4.7,4.7,6,3,6z"/></g>
<g transform="translate(806.66666666667,518.66666666667) scale(5.4933333333333)"><path d="M6,6H0V3c0-1.7,1.3-3,3-3l3,0V6z"/></g>
<g transform="translate(838.66666666667,518.66666666667) scale(5.4933333333333)"><path d="M6,6H0V0l3,0c1.7,0,3,1.3,3,3V6z"/></g>
<g transform="translate(934.66666666667,518.66666666667) scale(5.4933333333333)"><path d="M6,6H0v0c0-3.3,2.7-6,6-6h0L5.6,1.3c-0.4,1.1-0.4,2.4,0,3.5L6,6z"/></g>
<g transform="translate(134.66666666667,550.66666666667) scale(5.4933333333333)"><path d="M4.7,0.4c-1.1,0.4-2.4,0.4-3.5,0L0,0c0,3.3,2.7,6,6,6V0L4.7,0.4z"/></g>
<g transform="translate(166.66666666667,550.66666666667) scale(5.4933333333333)"><rect width="6" height="6"/></g>
<g transform="translate(230.66666666667,550.66666666667) scale(5.4933333333333)"><circle cx="3" cy="3" r="3"/></g>
<g transform="translate(326.66666666667,550.66666666667) scale(5.4933333333333)"><path d="M0,0l0.4,1.3c0.4,1.1,0.4,2.4,0,3.5L0,6c3.3,0,6-2.7,6-6H0z"/></g>
<g transform="translate(422.66666666667,550.66666666667) scale(5.4933333333333)"><path d="M6,6H0V3c0-1.7,1.3-3,3-3l3,0V6z"/></g>
<g transform="translate(454.66666666667,550.66666666667) scale(5.4933333333333)"><rect width="6" height="6"/></g>
<g transform="translate(486.66666666667,550.66666666667) scale(5.4933333333333)"><path d="M0,0v6l1.3-0.4c1.1-0.4,2.4-0.4,3.5,0L6,6C6,2.7,3.3,0,0,0z"/></g>
<g transform="translate(550.66666666667,550.66666666667) scale(5.4933333333333)"><rect width="6" height="6"/></g>
<g transform="translate(614.66666666667,550.66666666667) scale(5.4933333333333)"><path d="M6,6H0v0c0-3.3,2.7-6,6-6h0L5.6,1.3c-0.4,1.1-0.4,2.4,0,3.5L6,6z"/></g>
<g transform="translate(678.66666666667,550.66666666667) scale(5.4933333333333)"><path d="M6,6H0v0c0-3.3,2.7-6,6-6h0L5.6,1.3c-0.4,1.1-0.4,2.4,0,3.5L6,6z"/></g>
<g transform="translate(806.66666666667,550.66666666667) scale(5.4933333333333)"><rect width="6" height="6"/></g>
<g transform="translate(838.66666666667,550.66666666667) scale(5.4933333333333)"><rect width="6" height="6"/></g>
<g transform="translate(870.66666666667,550.66666666667) scale(5.4933333333333)"><path d="M0,0v6l1.3-0.4c1.1-0.4,2.4-0.4,3.5,0L6,6C6,2.7,3.3,0,0,0z"/></g>
<g transform="translate(934.66666666667,550.66666666667) scale(5.4933333333333)"><rect width="6" height="6"/></g>
<g transform="translate(38.666666666667,582.66666666667) scale(5.4933333333333)"><path d="M6,6H0V3c0-1.7,1.3-3,3-3l3,0V6z"/></g>
<g transform="translate(70.666666666667,582.66666666667) scale(5.4933333333333)"><path d="M0,0v6l1.3-0.4c1.1-0.4,2.4-0.4,3.5,0L6,6C6,2.7,3.3,0,0,0z"/></g>
<g transform="translate(166.66666666667,582.66666666667) scale(5.4933333333333)"><rect width="6" height="6"/></g>
<g transform="translate(294.66666666667,582.66666666667) scale(5.4933333333333)"><path d="M6,6H0v0c0-3.3,2.7-6,6-6h0L5.6,1.3c-0.4,1.1-0.4,2.4,0,3.5L6,6z"/></g>
<g transform="translate(390.66666666667,582.66666666667) scale(5.4933333333333)"><path d="M4.7,0.4c-1.1,0.4-2.4,0.4-3.5,0L0,0c0,3.3,2.7,6,6,6V0L4.7,0.4z"/></g>
<g transform="translate(422.66666666667,582.66666666667) scale(5.4933333333333)"><rect width="6" height="6"/></g>
<g transform="translate(518.66666666667,582.66666666667) scale(5.4933333333333)"><path d="M4.7,0.4c-1.1,0.4-2.4,0.4-3.5,0L0,0c0,3.3,2.7,6,6,6V0L4.7,0.4z"/></g>
<g transform="translate(550.66666666667,582.66666666667) scale(5.4933333333333)"><rect width="6" height="6"/></g>
<g transform="translate(582.66666666667,582.66666666667) scale(5.4933333333333)"><rect width="6" height="6"/></g>
<g transform="translate(614.66666666667,582.66666666667) scale(5.4933333333333)"><rect width="6" height="6"/></g>
<g transform="translate(646.66666666667,582.66666666667) scale(5.4933333333333)"><rect width="6" height="6"/></g>
<g transform="translate(678.66666666667,582.66666666667) scale(5.4933333333333)"><rect width="6" height="6"/></g>
<g transform="translate(710.66666666667,582.66666666667) scale(5.4933333333333)"><path d="M0,0v6l1.3-0.4c1.1-0.4,2.4-0.4,3.5,0L6,6C6,2.7,3.3,0,0,0z"/></g>
<g transform="translate(774.66666666667,582.66666666667) scale(5.4933333333333)"><path d="M6,6H0V3c0-1.7,1.3-3,3-3l3,0V6z"/></g>
<g transform="translate(806.66666666667,582.66666666667) scale(5.4933333333333)"><rect width="6" height="6"/></g>
<g transform="translate(838.66666666667,582.66666666667) scale(5.4933333333333)"><rect width="6" height="6"/></g>
<g transform="translate(902.66666666667,582.66666666667) scale(5.4933333333333)"><path d="M4.7,0.4c-1.1,0.4-2.4,0.4-3.5,0L0,0c0,3.3,2.7,6,6,6V0L4.7,0.4z"/></g>
<g transform="translate(934.66666666667,582.66666666667) scale(5.4933333333333)"><path d="M3,6H0V0l6,0v3C6,4.7,4.7,6,3,6z"/></g>
<g transform="translate(38.666666666667,614.66666666667) scale(5.4933333333333)"><rect width="6" height="6"/></g>
<g transform="translate(102.66666666667,614.66666666667) scale(5.4933333333333)"><path d="M6,6H0v0c0-3.3,2.7-6,6-6h0L5.6,1.3c-0.4,1.1-0.4,2.4,0,3.5L6,6z"/></g>
<g transform="translate(166.66666666667,614.66666666667) scale(5.4933333333333)"><rect width="6" height="6"/></g>
<g transform="translate(198.66666666667,614.66666666667) scale(5.4933333333333)"><rect width="6" height="6"/></g>
<g transform="translate(230.66666666667,614.66666666667) scale(5.4933333333333)"><path d="M0,0v6l1.3-0.4c1.1-0.4,2.4-0.4,3.5,0L6,6C6,2.7,3.3,0,0,0z"/></g>
<g transform="translate(294.66666666667,614.66666666667) scale(5.4933333333333)"><path d="M0,0l0.4,1.3c0.4,1.1,0.4,2.4,0,3.5L0,6c3.3,0,6-2.7,6-6H0z"/></g>
<g transform="translate(358.66666666667,614.66666666667) scale(5.4933333333333)"><circle cx="3" cy="3" r="3"/></g>
<g transform="translate(422.66666666667,614.66666666667) scale(5.4933333333333)"><path d="M0,0l0.4,1.3c0.4,1.1,0.4,2.4,0,3.5L0,6c3.3,0,6-2.7,6-6H0z"/></g>
<g transform="translate(582.66666666667,614.66666666667) scale(5.4933333333333)"><rect width="6" height="6"/></g>
<g transform="translate(678.66666666667,614.66666666667) scale(5.4933333333333)"><rect width="6" height="6"/></g>
<g transform="translate(742.66666666667,614.66666666667) scale(5.4933333333333)"><path d="M6,6H0V3c0-1.7,1.3-3,3-3l3,0V6z"/></g>
<g transform="translate(774.66666666667,614.66666666667) scale(5.4933333333333)"><rect width="6" height="6"/></g>
<g transform="translate(838.66666666667,614.66666666667) scale(5.4933333333333)"><rect width="6" height="6"/></g>
<g transform="translate(38.666666666667,646.66666666667) scale(5.4933333333333)"><rect width="6" height="6"/></g>
<g transform="translate(102.66666666667,646.66666666667) scale(5.4933333333333)"><rect width="6" height="6"/></g>
<g transform="translate(166.66666666667,646.66666666667) scale(5.4933333333333)"><rect width="6" height="6"/></g>
<g transform="translate(198.66666666667,646.66666666667) scale(5.4933333333333)"><rect width="6" height="6"/></g>
<g transform="translate(326.66666666667,646.66666666667) scale(5.4933333333333)"><circle cx="3" cy="3" r="3"/></g>
<g transform="translate(390.66666666667,646.66666666667) scale(5.4933333333333)"><path d="M6,6H0v0c0-3.3,2.7-6,6-6h0L5.6,1.3c-0.4,1.1-0.4,2.4,0,3.5L6,6z"/></g>
<g transform="translate(582.66666666667,646.66666666667) scale(5.4933333333333)"><rect width="6" height="6"/></g>
<g transform="translate(614.66666666667,646.66666666667) scale(5.4933333333333)"><rect width="6" height="6"/></g>
<g transform="translate(646.66666666667,646.66666666667) scale(5.4933333333333)"><rect width="6" height="6"/></g>
<g transform="translate(678.66666666667,646.66666666667) scale(5.4933333333333)"><rect width="6" height="6"/></g>
<g transform="translate(742.66666666667,646.66666666667) scale(5.4933333333333)"><rect width="6" height="6"/></g>
<g transform="translate(774.66666666667,646.66666666667) scale(5.4933333333333)"><rect width="6" height="6"/></g>
<g transform="translate(838.66666666667,646.66666666667) scale(5.4933333333333)"><rect width="6" height="6"/></g>
<g transform="translate(934.66666666667,646.66666666667) scale(5.4933333333333)"><circle cx="3" cy="3" r="3"/></g>
<g transform="translate(38.666666666667,678.66666666667) scale(5.4933333333333)"><path d="M0,0l0.4,1.3c0.4,1.1,0.4,2.4,0,3.5L0,6c3.3,0,6-2.7,6-6H0z"/></g>
<g transform="translate(102.66666666667,678.66666666667) scale(5.4933333333333)"><path d="M6,6H3C1.3,6,0,4.7,0,3V0l6,0V6z"/></g>
<g transform="translate(134.66666666667,678.66666666667) scale(5.4933333333333)"><rect width="6" height="6"/></g>
<g transform="translate(166.66666666667,678.66666666667) scale(5.4933333333333)"><rect width="6" height="6"/></g>
<g transform="translate(198.66666666667,678.66666666667) scale(5.4933333333333)"><rect width="6" height="6"/></g>
<g transform="translate(230.66666666667,678.66666666667) scale(5.4933333333333)"><rect width="6" height="6"/></g>
<g transform="translate(262.66666666667,678.66666666667) scale(5.4933333333333)"><path d="M0,0v6l1.3-0.4c1.1-0.4,2.4-0.4,3.5,0L6,6C6,2.7,3.3,0,0,0z"/></g>
<g transform="translate(358.66666666667,678.66666666667) scale(5.4933333333333)"><path d="M4.7,0.4c-1.1,0.4-2.4,0.4-3.5,0L0,0c0,3.3,2.7,6,6,6V0L4.7,0.4z"/></g>
<g transform="translate(390.66666666667,678.66666666667) scale(5.4933333333333)"><rect width="6" height="6"/></g>
<g transform="translate(422.66666666667,678.66666666667) scale(5.4933333333333)"><rect width="6" height="6"/></g>
<g transform="translate(454.66666666667,678.66666666667) scale(5.4933333333333)"><path d="M0,0v6l1.3-0.4c1.1-0.4,2.4-0.4,3.5,0L6,6C6,2.7,3.3,0,0,0z"/></g>
<g transform="translate(582.66666666667,678.66666666667) scale(5.4933333333333)"><rect width="6" height="6"/></g>
<g transform="translate(678.66666666667,678.66666666667) scale(5.4933333333333)"><rect width="6" height="6"/></g>
<g transform="translate(710.66666666667,678.66666666667) scale(5.4933333333333)"><rect width="6" height="6"/></g>
<g transform="translate(742.66666666667,678.66666666667) scale(5.4933333333333)"><rect width="6" height="6"/></g>
<g transform="translate(774.66666666667,678.66666666667) scale(5.4933333333333)"><rect width="6" height="6"/></g>
<g transform="translate(806.66666666667,678.66666666667) scale(5.4933333333333)"><rect width="6" height="6"/></g>
<g transform="translate(838.66666666667,678.66666666667) scale(5.4933333333333)"><rect width="6" height="6"/></g>
<g transform="translate(870.66666666667,678.66666666667) scale(5.4933333333333)"><path d="M0,0v6l1.3-0.4c1.1-0.4,2.4-0.4,3.5,0L6,6C6,2.7,3.3,0,0,0z"/></g>
<g transform="translate(294.66666666667,710.66666666667) scale(5.4933333333333)"><circle cx="3" cy="3" r="3"/></g>
<g transform="translate(390.66666666667,710.66666666667) scale(5.4933333333333)"><path d="M0,0l0.4,1.3c0.4,1.1,0.4,2.4,0,3.5L0,6c3.3,0,6-2.7,6-6H0z"/></g>
<g transform="translate(582.66666666667,710.66666666667) scale(5.4933333333333)"><path d="M6,6H3C1.3,6,0,4.7,0,3V0l6,0V6z"/></g>
<g transform="translate(614.66666666667,710.66666666667) scale(5.4933333333333)"><rect width="6" height="6"/></g>
<g transform="translate(646.66666666667,710.66666666667) scale(5.4933333333333)"><rect width="6" height="6"/></g>
<g transform="translate(678.66666666667,710.66666666667) scale(5.4933333333333)"><rect width="6" height="6"/></g>
<g transform="translate(806.66666666667,710.66666666667) scale(5.4933333333333)"><rect width="6" height="6"/></g>
<g transform="translate(838.66666666667,710.66666666667) scale(5.4933333333333)"><path d="M3,6H0V0l6,0v3C6,4.7,4.7,6,3,6z"/></g>
<g transform="translate(902.66666666667,710.66666666667) scale(5.4933333333333)"><path d="M4.7,0.4c-1.1,0.4-2.4,0.4-3.5,0L0,0c0,3.3,2.7,6,6,6V0L4.7,0.4z"/></g>
<g transform="translate(934.66666666667,710.66666666667) scale(5.4933333333333)"><path d="M0,0v6l1.3-0.4c1.1-0.4,2.4-0.4,3.5,0L6,6C6,2.7,3.3,0,0,0z"/></g>
<g transform="translate(422.66666666667,742.66666666667) scale(5.4933333333333)"><path d="M4.7,0.4c-1.1,0.4-2.4,0.4-3.5,0L0,0c0,3.3,2.7,6,6,6V0L4.7,0.4z"/></g>
<g transform="translate(454.66666666667,742.66666666667) scale(5.4933333333333)"><path d="M6,6H0V0l3,0c1.7,0,3,1.3,3,3V6z"/></g>
<g transform="translate(518.66666666667,742.66666666667) scale(5.4933333333333)"><circle cx="3" cy="3" r="3"/></g>
<g transform="translate(614.66666666667,742.66666666667) scale(5.4933333333333)"><path d="M6,6H3C1.3,6,0,4.7,0,3V0l6,0V6z"/></g>
<g transform="translate(646.66666666667,742.66666666667) scale(5.4933333333333)"><rect width="6" height="6"/></g>
<g transform="translate(678.66666666667,742.66666666667) scale(5.4933333333333)"><rect width="6" height="6"/></g>
<g transform="translate(742.66666666667,742.66666666667) scale(5.4933333333333)"><circle cx="3" cy="3" r="3"/></g>
<g transform="translate(806.66666666667,742.66666666667) scale(5.4933333333333)"><rect width="6" height="6"/></g>
<g transform="translate(326.66666666667,774.66666666667) scale(5.4933333333333)"><circle cx="3" cy="3" r="3"/></g>
<g transform="translate(390.66666666667,774.66666666667) scale(5.4933333333333)"><circle cx="3" cy="3" r="3"/></g>
<g transform="translate(454.66666666667,774.66666666667) scale(5.4933333333333)"><path d="M0,0l0.4,1.3c0.4,1.1,0.4,2.4,0,3.5L0,6c3.3,0,6-2.7,6-6H0z"/></g>
<g transform="translate(550.66666666667,774.66666666667) scale(5.4933333333333)"><path d="M6,6H0V3c0-1.7,1.3-3,3-3l3,0V6z"/></g>
<g transform="translate(582.66666666667,774.66666666667) scale(5.4933333333333)"><path d="M0,0v6l1.3-0.4c1.1-0.4,2.4-0.4,3.5,0L6,6C6,2.7,3.3,0,0,0z"/></g>
<g transform="translate(646.66666666667,774.66666666667) scale(5.4933333333333)"><path d="M6,6H3C1.3,6,0,4.7,0,3V0l6,0V6z"/></g>
<g transform="translate(678.66666666667,774.66666666667) scale(5.4933333333333)"><rect width="6" height="6"/></g>
<g transform="translate(806.66666666667,774.66666666667) scale(5.4933333333333)"><rect width="6" height="6"/></g>
<g transform="translate(838.66666666667,774.66666666667) scale(5.4933333333333)"><path d="M6,6H0V0l3,0c1.7,0,3,1.3,3,3V6z"/></g>
<g transform="translate(934.66666666667,774.66666666667) scale(5.4933333333333)"><circle cx="3" cy="3" r="3"/></g>
<g transform="translate(294.66666666667,806.66666666667) scale(5.4933333333333)"><path d="M6,6H0v0c0-3.3,2.7-6,6-6h0L5.6,1.3c-0.4,1.1-0.4,2.4,0,3.5L6,6z"/></g>
<g transform="translate(486.66666666667,806.66666666667) scale(5.4933333333333)"><path d="M6,6H0v0c0-3.3,2.7-6,6-6h0L5.6,1.3c-0.4,1.1-0.4,2.4,0,3.5L6,6z"/></g>
<g transform="translate(550.66666666667,806.66666666667) scale(5.4933333333333)"><rect width="6" height="6"/></g>
<g transform="translate(614.66666666667,806.66666666667) scale(5.4933333333333)"><path d="M6,6H0v0c0-3.3,2.7-6,6-6h0L5.6,1.3c-0.4,1.1-0.4,2.4,0,3.5L6,6z"/></g>
<g transform="translate(678.66666666667,806.66666666667) scale(5.4933333333333)"><rect width="6" height="6"/></g>
<g transform="translate(710.66666666667,806.66666666667) scale(5.4933333333333)"><rect width="6" height="6"/></g>
<g transform="translate(742.66666666667,806.66666666667) scale(5.4933333333333)"><rect width="6" height="6"/></g>
<g transform="translate(774.66666666667,806.66666666667) scale(5.4933333333333)"><rect width="6" height="6"/></g>
<g transform="translate(806.66666666667,806.66666666667) scale(5.4933333333333)"><rect width="6" height="6"/></g>
<g transform="translate(838.66666666667,806.66666666667) scale(5.4933333333333)"><rect width="6" height="6"/></g>
<g transform="translate(870.66666666667,806.66666666667) scale(5.4933333333333)"><rect width="6" height="6"/></g>
<g transform="translate(902.66666666667,806.66666666667) scale(5.4933333333333)"><path d="M0,0v6l1.3-0.4c1.1-0.4,2.4-0.4,3.5,0L6,6C6,2.7,3.3,0,0,0z"/></g>
<g transform="translate(294.66666666667,838.66666666667) scale(5.4933333333333)"><rect width="6" height="6"/></g>
<g transform="translate(358.66666666667,838.66666666667) scale(5.4933333333333)"><path d="M6,6H0V3c0-1.7,1.3-3,3-3l3,0V6z"/></g>
<g transform="translate(390.66666666667,838.66666666667) scale(5.4933333333333)"><path d="M6,6H0V0l3,0c1.7,0,3,1.3,3,3V6z"/></g>
<g transform="translate(486.66666666667,838.66666666667) scale(5.4933333333333)"><path d="M0,0l0.4,1.3c0.4,1.1,0.4,2.4,0,3.5L0,6c3.3,0,6-2.7,6-6H0z"/></g>
<g transform="translate(550.66666666667,838.66666666667) scale(5.4933333333333)"><path d="M0,0l0.4,1.3c0.4,1.1,0.4,2.4,0,3.5L0,6c3.3,0,6-2.7,6-6H0z"/></g>
<g transform="translate(614.66666666667,838.66666666667) scale(5.4933333333333)"><rect width="6" height="6"/></g>
<g transform="translate(646.66666666667,838.66666666667) scale(5.4933333333333)"><rect width="6" height="6"/></g>
<g transform="translate(678.66666666667,838.66666666667) scale(5.4933333333333)"><rect width="6" height="6"/></g>
<g transform="translate(710.66666666667,838.66666666667) scale(5.4933333333333)"><rect width="6" height="6"/></g>
<g transform="translate(774.66666666667,838.66666666667) scale(5.4933333333333)"><rect width="6" height="6"/></g>
<g transform="translate(294.66666666667,870.66666666667) scale(5.4933333333333)"><path d="M6,6H3C1.3,6,0,4.7,0,3V0l6,0V6z"/></g>
<g transform="translate(326.66666666667,870.66666666667) scale(5.4933333333333)"><rect width="6" height="6"/></g>
<g transform="translate(358.66666666667,870.66666666667) scale(5.4933333333333)"><rect width="6" height="6"/></g>
<g transform="translate(390.66666666667,870.66666666667) scale(5.4933333333333)"><path d="M3,6H0V0l6,0v3C6,4.7,4.7,6,3,6z"/></g>
<g transform="translate(454.66666666667,870.66666666667) scale(5.4933333333333)"><circle cx="3" cy="3" r="3"/></g>
<g transform="translate(614.66666666667,870.66666666667) scale(5.4933333333333)"><rect width="6" height="6"/></g>
<g transform="translate(646.66666666667,870.66666666667) scale(5.4933333333333)"><rect width="6" height="6"/></g>
<g transform="translate(678.66666666667,870.66666666667) scale(5.4933333333333)"><rect width="6" height="6"/></g>
<g transform="translate(710.66666666667,870.66666666667) scale(5.4933333333333)"><rect width="6" height="6"/></g>
<g transform="translate(742.66666666667,870.66666666667) scale(5.4933333333333)"><rect width="6" height="6"/></g>
<g transform="translate(774.66666666667,870.66666666667) scale(5.4933333333333)"><rect width="6" height="6"/></g>
<g transform="translate(806.66666666667,870.66666666667) scale(5.4933333333333)"><rect width="6" height="6"/></g>
<g transform="translate(838.66666666667,870.66666666667) scale(5.4933333333333)"><rect width="6" height="6"/></g>
<g transform="translate(870.66666666667,870.66666666667) scale(5.4933333333333)"><rect width="6" height="6"/></g>
<g transform="translate(902.66666666667,870.66666666667) scale(5.4933333333333)"><path d="M6,6H0V0l3,0c1.7,0,3,1.3,3,3V6z"/></g>
<g transform="translate(358.66666666667,902.66666666667) scale(5.4933333333333)"><rect width="6" height="6"/></g>
<g transform="translate(422.66666666667,902.66666666667) scale(5.4933333333333)"><circle cx="3" cy="3" r="3"/></g>
<g transform="translate(486.66666666667,902.66666666667) scale(5.4933333333333)"><path d="M6,6H0v0c0-3.3,2.7-6,6-6h0L5.6,1.3c-0.4,1.1-0.4,2.4,0,3.5L6,6z"/></g>
<g transform="translate(550.66666666667,902.66666666667) scale(5.4933333333333)"><path d="M4.7,0.4c-1.1,0.4-2.4,0.4-3.5,0L0,0c0,3.3,2.7,6,6,6V0L4.7,0.4z"/></g>
<g transform="translate(582.66666666667,902.66666666667) scale(5.4933333333333)"><rect width="6" height="6"/></g>
<g transform="translate(614.66666666667,902.66666666667) scale(5.4933333333333)"><rect width="6" height="6"/></g>
<g transform="translate(742.66666666667,902.66666666667) scale(5.4933333333333)"><rect width="6" height="6"/></g>
<g transform="translate(806.66666666667,902.66666666667) scale(5.4933333333333)"><rect width="6" height="6"/></g>
<g transform="translate(902.66666666667,902.66666666667) scale(5.4933333333333)"><path d="M0,0l0.4,1.3c0.4,1.1,0.4,2.4,0,3.5L0,6c3.3,0,6-2.7,6-6H0z"/></g>
<g transform="translate(326.66666666667,934.66666666667) scale(5.4933333333333)"><path d="M4.7,0.4c-1.1,0.4-2.4,0.4-3.5,0L0,0c0,3.3,2.7,6,6,6V0L4.7,0.4z"/></g>
<g transform="translate(358.66666666667,934.66666666667) scale(5.4933333333333)"><rect width="6" height="6"/></g>
<g transform="translate(390.66666666667,934.66666666667) scale(5.4933333333333)"><path d="M0,0v6l1.3-0.4c1.1-0.4,2.4-0.4,3.5,0L6,6C6,2.7,3.3,0,0,0z"/></g>
<g transform="translate(454.66666666667,934.66666666667) scale(5.4933333333333)"><path d="M4.7,0.4c-1.1,0.4-2.4,0.4-3.5,0L0,0c0,3.3,2.7,6,6,6V0L4.7,0.4z"/></g>
<g transform="translate(486.66666666667,934.66666666667) scale(5.4933333333333)"><path d="M3,6H0V0l6,0v3C6,4.7,4.7,6,3,6z"/></g>
<g transform="translate(614.66666666667,934.66666666667) scale(5.4933333333333)"><path d="M6,6H3C1.3,6,0,4.7,0,3V0l6,0V6z"/></g>
<g transform="translate(646.66666666667,934.66666666667) scale(5.4933333333333)"><path d="M0,0v6l1.3-0.4c1.1-0.4,2.4-0.4,3.5,0L6,6C6,2.7,3.3,0,0,0z"/></g>
<g transform="translate(742.66666666667,934.66666666667) scale(5.4933333333333)"><path d="M0,0l0.4,1.3c0.4,1.1,0.4,2.4,0,3.5L0,6c3.3,0,6-2.7,6-6H0z"/></g>
<g transform="translate(806.66666666667,934.66666666667) scale(5.4933333333333)"><path d="M0,0l0.4,1.3c0.4,1.1,0.4,2.4,0,3.5L0,6c3.3,0,6-2.7,6-6H0z"/></g>
<g transform="translate(870.66666666667,934.66666666667) scale(5.4933333333333)"><circle cx="3" cy="3" r="3"/></g>
</g><g fill="#fff" transform="scale(41.888888888889)"></g>
<g><g transform="translate(38.666666666667,38.666666666667)"  fill="#5362ae"><g transform="scale(16)"><path d="M0,0l0,7c0,3.9,3.1,7,7,7h0c3.9,0,7-3.1,7-7v0c0-3.9-3.1-7-7-7H0z M7,12L7,12c-2.8,0-5-2.2-5-5V2h5c2.8,0,5,2.2,5,5v0 C12,9.8,9.8,12,7,12z"/></g></g>
<g transform="translate(742.66666666667,38.666666666667)"  fill="#5362ae"><g transform="scale(16) rotate(90 7 7)"><path d="M0,0l0,7c0,3.9,3.1,7,7,7h0c3.9,0,7-3.1,7-7v0c0-3.9-3.1-7-7-7H0z M7,12L7,12c-2.8,0-5-2.2-5-5V2h5c2.8,0,5,2.2,5,5v0 C12,9.8,9.8,12,7,12z"/></g></g>
<g transform="translate(38.666666666667,742.66666666667)"  fill="#5362ae"><g transform="scale(16) rotate(-90 7 7)"><path d="M0,0l0,7c0,3.9,3.1,7,7,7h0c3.9,0,7-3.1,7-7v0c0-3.9-3.1-7-7-7H0z M7,12L7,12c-2.8,0-5-2.2-5-5V2h5c2.8,0,5,2.2,5,5v0 C12,9.8,9.8,12,7,12z"/></g></g>
<g transform="translate(102.66666666667,102.66666666667)"  fill="#fff"><g transform="scale(16)"><polygon points="3,0 3.4,0.7 4,0.2 4.1,0.9 4.9,0.7 4.8,1.5 5.6,1.5 5.2,2.2 5.9,2.5 5.3,3 5.9,3.5 5.2,3.8 5.6,4.5 4.8,4.5 4.9,5.3 4.1,5.1 4,5.8 3.4,5.3 3,6 2.5,5.3 1.9,5.8 1.8,5.1 1,5.3 1.1,4.5 0.4,4.5 0.7,3.8 0,3.5 0.6,3 0,2.5 0.7,2.2 0.4,1.5 1.1,1.5 1,0.7 1.8,0.9 1.9,0.2 2.5,0.7"/></g></g>
<g transform="translate(806.66666666667,102.66666666667)"  fill="#fff"><g transform="scale(16)"><polygon points="3,0 3.4,0.7 4,0.2 4.1,0.9 4.9,0.7 4.8,1.5 5.6,1.5 5.2,2.2 5.9,2.5 5.3,3 5.9,3.5 5.2,3.8 5.6,4.5 4.8,4.5 4.9,5.3 4.1,5.1 4,5.8 3.4,5.3 3,6 2.5,5.3 1.9,5.8 1.8,5.1 1,5.3 1.1,4.5 0.4,4.5 0.7,3.8 0,3.5 0.6,3 0,2.5 0.7,2.2 0.4,1.5 1.1,1.5 1,0.7 1.8,0.9 1.9,0.2 2.5,0.7"/></g></g>
<g transform="translate(102.66666666667,806.66666666667)"  fill="#fff"><g transform="scale(16)"><polygon points="3,0 3.4,0.7 4,0.2 4.1,0.9 4.9,0.7 4.8,1.5 5.6,1.5 5.2,2.2 5.9,2.5 5.3,3 5.9,3.5 5.2,3.8 5.6,4.5 4.8,4.5 4.9,5.3 4.1,5.1 4,5.8 3.4,5.3 3,6 2.5,5.3 1.9,5.8 1.8,5.1 1,5.3 1.1,4.5 0.4,4.5 0.7,3.8 0,3.5 0.6,3 0,2.5 0.7,2.2 0.4,1.5 1.1,1.5 1,0.7 1.8,0.9 1.9,0.2 2.5,0.7"/></g></g></g>
<text fill="#000000" font-family="Arial, Helvetica, sans-serif" font-size="0px" text-anchor="middle" x="525.625" y="41.888888888889">SCAN ME</text></svg>